<svg version="1.2" baseProfile="tiny-ps" xmlns="http://www.w3.org/2000/svg" viewBox="0 0 290 290" width="290" height="290">
	<title>planet-saturn-internal-svg</title>
	<defs>
		<clipPath clipPathUnits="userSpaceOnUse" id="cp1">
			<path d="M145 228.35C95.06 228.35 54.7 187.99 54.7 138.05C54.7 88.12 95.06 47.75 145 47.75C194.94 47.75 235.3 88.12 235.3 138.05C235.3 187.99 194.94 228.35 145 228.35Z" />
		</clipPath>
		<clipPath clipPathUnits="userSpaceOnUse" id="cp2">
			<path d="M145 228.35C95.06 228.35 54.7 187.99 54.7 138.05C54.7 88.12 95.06 47.75 145 47.75C194.94 47.75 235.3 88.12 235.3 138.05C235.3 187.99 194.94 228.35 145 228.35Z" />
		</clipPath>
		<clipPath clipPathUnits="userSpaceOnUse" id="cp3">
			<path d="M145 225.75C193.43 225.75 232.69 186.49 232.69 138.05C232.69 89.62 193.43 50.36 145 50.36L145 225.75Z" />
		</clipPath>
	</defs>
	<style>
		tspan { white-space:pre }
		.shp0 { fill: #b87d43 } 
		.shp1 { fill: #fccb6b } 
		.shp2 { fill: #ecb55a } 
		.shp3 { opacity: 0.078;fill: #000000 } 
		.shp4 { fill: #9c4925 } 
		.shp5 { fill: #e09b7f } 
		.shp6 { fill: #ffeecc } 
	</style>
	<path id="Layer" fill-rule="evenodd" class="shp0" d="M23.13 23.13C23.18 23.08 23.23 23.03 23.28 22.98C35.74 10.52 100.41 54.98 167.72 122.28C235.02 189.59 279.48 254.26 267.02 266.72C266.97 266.77 266.92 266.82 266.87 266.87L247.1 247.1C247.16 247.05 247.21 247 247.26 246.95C257.7 236.51 220.45 182.33 164.06 125.94C107.67 69.55 53.49 32.3 43.05 42.74C43.03 42.75 43.02 42.76 43.01 42.78C42.99 42.79 42.98 42.8 42.97 42.82C42.96 42.83 42.95 42.84 42.93 42.86C42.92 42.87 42.91 42.88 42.9 42.9L23.13 23.13ZM162.84 126.86C216.5 180.52 251.94 232.07 242 242L234.56 234.56C234.62 234.51 234.67 234.46 234.72 234.41C243.9 225.24 211.24 177.69 161.77 128.23C112.3 78.76 64.76 46.1 55.59 55.28C55.57 55.29 55.56 55.31 55.55 55.32C55.54 55.33 55.52 55.34 55.51 55.36C55.5 55.37 55.49 55.38 55.47 55.4C55.46 55.41 55.45 55.42 55.44 55.44L47.69 47.69C57.62 37.75 109.18 73.2 162.84 126.86Z" />
	<path id="Layer" class="shp1" d="M145 228.35C95.06 228.35 54.7 187.99 54.7 138.05C54.7 88.12 95.06 47.75 145 47.75C194.94 47.75 235.3 88.12 235.3 138.05C235.3 187.99 194.94 228.35 145 228.35Z" />
	<g id="Clip-Path" clip-path="url(#cp1)">
		<g id="Layer">
			<path id="Layer" fill-rule="evenodd" class="shp2" d="M282.48 272.97C284.51 275.01 284.51 278.31 282.48 280.34C280.45 282.38 277.15 282.38 275.11 280.34L227.22 232.45C225.19 230.42 225.19 227.12 227.22 225.09C229.26 223.05 232.56 223.05 234.59 225.09L282.48 272.97ZM214.94 205.44C216.98 207.47 216.98 210.77 214.94 212.81C212.91 214.84 209.61 214.84 207.58 212.81L198.37 203.6C196.33 201.56 193.03 201.56 191 203.6C188.97 205.63 188.97 208.93 191 210.96L206.04 226.01C208.08 228.04 208.08 231.34 206.04 233.37C204.01 235.41 200.71 235.41 198.68 233.37L119.78 154.48C117.75 152.45 117.75 149.15 119.78 147.11C121.82 145.08 125.11 145.08 127.15 147.11L176.27 196.23L176.27 196.23C178.31 198.11 181.5 198.06 183.48 196.08C185.46 194.09 185.51 190.91 183.63 188.86L183.63 188.86L159.69 164.92C157.65 162.88 157.65 159.58 159.69 157.55C161.72 155.52 165.02 155.52 167.06 157.55L214.94 205.44ZM222.93 272.36C224.96 274.39 224.96 277.69 222.93 279.73C220.89 281.76 217.59 281.76 215.56 279.73L193.15 257.32C191.11 255.28 191.11 251.98 193.15 249.95C195.18 247.92 198.48 247.92 200.52 249.95L222.93 272.36ZM112.41 161.85L134.82 184.26C136.86 186.29 136.86 189.59 134.82 191.62C132.79 193.66 129.49 193.66 127.46 191.62L105.05 169.22C103.01 167.18 103.01 163.88 105.05 161.85C107.08 159.81 110.38 159.81 112.41 161.85ZM111.8 117.03C109.77 114.99 106.47 114.99 104.43 117.03C102.4 119.06 102.4 122.36 104.43 124.4L107.2 127.16C109.23 129.19 109.23 132.49 107.2 134.53C105.16 136.56 101.86 136.56 99.83 134.53L20.94 55.63C18.9 53.6 18.9 50.3 20.94 48.27C22.97 46.23 26.27 46.23 28.3 48.27L89.7 109.66L89.7 109.66C91.74 111.54 94.93 111.49 96.91 109.51C98.9 107.52 98.95 104.34 97.06 102.3L97.07 102.29L89.7 94.93C87.66 92.89 87.66 89.59 89.7 87.56C91.73 85.52 95.03 85.52 97.07 87.56L144.95 135.45C146.99 137.48 146.99 140.78 144.95 142.82C142.92 144.85 139.62 144.85 137.59 142.82L111.8 117.03ZM35.06 84.49L86.01 135.45C88.05 137.48 88.05 140.78 86.01 142.82C83.98 144.85 80.68 144.85 78.65 142.82L27.69 91.86C25.65 89.82 25.65 86.52 27.69 84.49C29.72 82.45 33.02 82.45 35.06 84.49ZM24 21.87C26.04 19.83 29.34 19.83 31.37 21.87L79.26 69.75C81.3 71.79 81.3 75.09 79.26 77.12C77.23 79.16 73.93 79.16 71.89 77.12L24 29.23C21.97 27.2 21.97 23.9 24 21.87L24 21.87Z" />
		</g>
	</g>
	<g id="Clip-Path" clip-path="url(#cp2)">
		<g id="Layer">
			<path id="Layer" class="shp3" d="M145 47.75L235.77 47.75L235.77 228.35L145 228.35L145 47.75Z" />
		</g>
	</g>
	<path id="Layer" fill-rule="evenodd" class="shp4" d="M145 225.75C193.43 225.75 232.69 186.49 232.69 138.05C232.69 89.62 193.43 50.36 145 50.36L145 225.75Z" />
	<g id="Clip-Path" clip-path="url(#cp3)">
		<g id="Layer">
			<path id="Layer" class="shp5" d="M145.43 187.54C118.07 187.54 95.94 165.42 95.94 138.05C95.94 110.69 118.07 88.56 145.43 88.56C172.8 88.56 194.93 110.69 194.93 138.05C194.93 165.42 172.8 187.54 145.43 187.54Z" />
			<path id="Layer" class="shp6" d="M145.22 153.25C136.93 153.25 130.24 146.55 130.24 138.27C130.24 129.99 136.93 123.29 145.22 123.29C153.5 123.29 160.19 129.99 160.19 138.27C160.19 146.55 153.5 153.25 145.22 153.25Z" />
		</g>
	</g>
	<path id="Layer" fill-rule="evenodd" class="shp0" d="M42.9 42.9C42.84 42.94 42.79 42.99 42.74 43.05C32.3 53.49 69.55 107.66 125.94 164.06C182.33 220.45 236.51 257.7 246.95 247.26C247.01 247.21 247.06 247.16 247.1 247.1L266.87 266.87C266.82 266.92 266.77 266.97 266.72 267.02C254.26 279.48 189.59 235.02 122.28 167.72C54.98 100.41 10.52 35.74 22.98 23.28C22.99 23.27 23 23.26 23.02 23.24C23.03 23.23 23.04 23.22 23.05 23.21C23.07 23.19 23.08 23.18 23.09 23.17C23.11 23.16 23.12 23.14 23.13 23.13L42.9 42.9ZM47.69 47.69L55.44 55.44C55.38 55.49 55.33 55.54 55.28 55.59C46.1 64.76 78.76 112.3 128.23 161.77C177.7 211.24 225.24 243.9 234.41 234.72C234.43 234.71 234.44 234.69 234.45 234.68C234.46 234.67 234.48 234.65 234.49 234.64C234.5 234.63 234.51 234.62 234.53 234.6C234.54 234.59 234.55 234.58 234.56 234.56L242 242C232.07 251.94 180.52 216.5 126.86 162.84C73.2 109.18 37.75 57.62 47.69 47.69Z" />
</svg>