<svg version="1.2" baseProfile="tiny-ps" xmlns="http://www.w3.org/2000/svg" viewBox="0 0 290 290" width="290" height="290">
	<title>Layer</title>
	<defs>
		<clipPath clipPathUnits="userSpaceOnUse" id="cp1">
			<path d="M145 290C64.81 290 0 225.18 0 145C0 64.81 64.81 0 145 0C225.18 0 290 64.81 290 145C290 225.18 225.18 290 145 290Z" />
		</clipPath>
		<clipPath clipPathUnits="userSpaceOnUse" id="cp2">
			<path d="M145 290C64.81 290 0 225.18 0 145C0 64.81 64.81 0 145 0C225.18 0 290 64.81 290 145C290 225.18 225.18 290 145 290Z" />
		</clipPath>
		<clipPath clipPathUnits="userSpaceOnUse" id="cp3">
			<path d="M145 290C64.81 290 0 225.18 0 145C0 64.81 64.81 0 145 0C225.18 0 290 64.81 290 145C290 225.18 225.18 290 145 290Z" />
		</clipPath>
		<clipPath clipPathUnits="userSpaceOnUse" id="cp4">
			<path d="M145 290C64.81 290 0 225.18 0 145C0 64.81 64.81 0 145 0C225.18 0 290 64.81 290 145C290 225.18 225.18 290 145 290Z" />
		</clipPath>
	</defs>
	<style>
		tspan { white-space:pre }
		.shp0 { fill: #ff6a45 } 
		.shp1 { fill: #ff9b6b } 
		.shp2 { fill: #d04237 } 
		.shp3 { opacity: 0.078;fill: #000000 } 
	</style>
	<g id="Layer">
		<path id="Layer" class="shp0" d="M145 290C64.81 290 0 225.18 0 145C0 64.81 64.81 0 145 0C225.18 0 290 64.81 290 145C290 225.18 225.18 290 145 290Z" />
		<g id="Clip-Path" clip-path="url(#cp1)">
			<path id="Layer" class="shp1" d="M88.04 31.07C88.04 25.35 83.4 20.71 77.68 20.71L47.47 20.71C41.75 20.71 37.11 16.08 37.11 10.36C37.11 4.64 41.75 0 47.47 0L182.11 0C187.83 0 192.47 4.64 192.47 10.36C192.47 16.08 187.83 20.71 182.11 20.71L133.78 20.71L133.78 20.72C128.26 20.95 123.85 25.5 123.85 31.07C123.85 36.65 128.26 41.19 133.78 41.42L133.78 41.43L145 41.43C150.72 41.43 155.36 46.07 155.36 51.79C155.36 57.51 150.72 62.14 145 62.14L35.39 62.14C29.67 62.14 25.03 57.51 25.03 51.79C25.03 46.07 29.67 41.43 35.39 41.43L77.68 41.43C83.4 41.43 88.04 36.79 88.04 31.07ZM236.49 41.43C242.21 41.43 246.85 46.07 246.85 51.79C246.85 57.51 242.21 62.14 236.49 62.14L232.17 62.14C226.45 62.14 221.82 57.51 221.82 51.79C221.82 46.07 226.45 41.43 232.17 41.43L236.49 41.43Z" />
		</g>
		<g id="Clip-Path" clip-path="url(#cp2)">
			<path id="Layer" class="shp1" d="M180.39 279.64C180.39 273.92 175.75 269.29 170.03 269.29L139.82 269.29C134.1 269.29 129.46 264.65 129.46 258.93C129.46 253.21 134.1 248.57 139.82 248.57L274.46 248.57C280.18 248.57 284.82 253.21 284.82 258.93C284.82 264.65 280.18 269.29 274.46 269.29L226.13 269.29L226.13 269.29C220.61 269.52 216.21 274.07 216.21 279.64C216.21 285.22 220.61 289.76 226.13 289.99L226.13 290L237.35 290C243.07 290 247.71 294.64 247.71 300.36C247.71 306.08 243.07 310.71 237.35 310.71L127.74 310.71C122.02 310.71 117.38 306.08 117.38 300.36C117.38 294.64 122.02 290 127.74 290L170.03 290C175.75 290 180.39 285.36 180.39 279.64ZM328.84 290C334.56 290 339.2 294.64 339.2 300.36C339.2 306.08 334.56 310.71 328.84 310.71L324.52 310.71C318.8 310.71 314.17 306.08 314.17 300.36C314.17 294.64 318.8 290 324.52 290L328.84 290Z" />
		</g>
		<g id="Clip-Path" clip-path="url(#cp3)">
			<path id="Layer" fill-rule="evenodd" class="shp2" d="M187.29 227.86C193.01 227.86 197.65 232.49 197.65 238.21C197.65 243.93 193.01 248.57 187.29 248.57L133.78 248.57C128.06 248.57 123.42 243.93 123.42 238.21C123.42 232.49 128.06 227.86 133.78 227.86L187.29 227.86ZM86.31 227.86C92.03 227.86 96.67 232.49 96.67 238.21C96.67 243.93 92.03 248.57 86.31 248.57L69.05 248.57C63.33 248.57 58.69 243.93 58.69 238.21C58.69 232.49 63.33 227.86 69.05 227.86L86.31 227.86ZM226.99 145C232.71 145 237.35 149.64 237.35 155.36C237.35 161.08 232.71 165.71 226.99 165.71L96.67 165.71L96.67 165.72C91.15 165.95 86.74 170.5 86.74 176.07C86.74 181.65 91.15 186.19 96.67 186.42L96.67 186.43L113.07 186.43C118.79 186.43 123.42 191.07 123.42 196.79C123.42 202.51 118.79 207.14 113.07 207.14L9.49 207.14C3.77 207.14 -0.86 202.51 -0.86 196.79C-0.86 191.07 3.77 186.43 9.49 186.43L37.11 186.43C42.83 186.43 47.47 181.79 47.47 176.07C47.47 170.35 42.83 165.71 37.11 165.71L-18.13 165.71C-23.84 165.71 -28.48 161.08 -28.48 155.36C-28.48 149.64 -23.84 145 -18.13 145L226.99 145ZM182.11 186.43C187.83 186.43 192.47 191.07 192.47 196.79C192.47 202.51 187.83 207.14 182.11 207.14L164.85 207.14C159.13 207.14 154.49 202.51 154.49 196.79C154.49 191.07 159.13 186.43 164.85 186.43L182.11 186.43ZM119.97 62.14C125.69 62.14 130.33 66.78 130.33 72.5C130.33 78.22 125.69 82.86 119.97 82.86L85.45 82.86C79.73 82.86 75.09 78.22 75.09 72.5C75.09 66.78 79.73 62.14 85.45 62.14L119.97 62.14ZM300.36 62.14C306.08 62.14 310.71 66.78 310.71 72.5C310.71 78.22 306.08 82.86 300.36 82.86L265.83 82.86C260.11 82.86 255.48 78.22 255.48 72.5C255.48 66.78 260.11 62.14 265.83 62.14L300.36 62.14Z" />
		</g>
		<g id="Clip-Path" clip-path="url(#cp4)">
			<path id="Layer" class="shp3" d="M145.86 -13.81L304.67 -13.81L304.67 303.81L145.86 303.81L145.86 -13.81Z" />
		</g>
	</g>
</svg>