<svg version="1.2" baseProfile="tiny-ps" xmlns="http://www.w3.org/2000/svg" viewBox="0 0 290 290" width="290" height="290">
	<title>Layer</title>
	<defs>
		<clipPath clipPathUnits="userSpaceOnUse" id="cp1">
			<path d="M145 290C64.81 290 0 225.18 0 145C0 64.81 64.81 0 145 0C225.18 0 290 64.81 290 145C290 225.18 225.18 290 145 290Z" />
		</clipPath>
		<clipPath clipPathUnits="userSpaceOnUse" id="cp2">
			<path d="M145 290C64.81 290 0 225.18 0 145C0 64.81 64.81 0 145 0C225.18 0 290 64.81 290 145C290 225.18 225.18 290 145 290Z" />
		</clipPath>
		<clipPath clipPathUnits="userSpaceOnUse" id="cp3">
			<path d="M145 290C64.81 290 0 225.18 0 145C0 64.81 64.81 0 145 0C225.18 0 290 64.81 290 145C290 225.18 225.18 290 145 290Z" />
		</clipPath>
	</defs>
	<style>
		tspan { white-space:pre }
		.shp0 { fill: #f7cc7f } 
		.shp1 { fill: #ffe6ae } 
		.shp2 { fill: #e29f58 } 
		.shp3 { opacity: 0.078;fill: #000000 } 
	</style>
	<g id="Layer">
		<path id="Layer" class="shp0" d="M145 290C64.81 290 0 225.18 0 145C0 64.81 64.81 0 145 0C225.18 0 290 64.81 290 145C290 225.18 225.18 290 145 290Z" />
		<g id="Clip-Path" clip-path="url(#cp1)">
			<path id="Layer" fill-rule="evenodd" class="shp1" d="M224.75 225.47C229.55 225.47 233.45 229.37 233.45 234.17C233.45 238.98 229.55 242.87 224.75 242.87L137.02 242.87L137.02 242.88C132.39 243.07 128.69 246.89 128.69 251.57C128.69 256.26 132.39 260.08 137.02 260.27L137.02 260.27L139.2 260.27C144 260.27 147.9 264.17 147.9 268.97C147.9 273.78 144 277.67 139.2 277.67L84.1 277.67C79.3 277.67 75.4 273.78 75.4 268.97C75.4 264.17 79.3 260.27 84.1 260.27L87 260.27C91.8 260.27 95.7 256.38 95.7 251.57C95.7 246.77 91.8 242.87 87 242.87L57.27 242.87C52.47 242.87 48.57 238.98 48.57 234.17C48.57 229.37 52.47 225.47 57.27 225.47L224.75 225.47ZM210.25 121.07C215.05 121.07 218.95 124.97 218.95 129.77C218.95 134.58 215.05 138.47 210.25 138.47L196.47 138.47L196.47 138.48C191.84 138.67 188.14 142.49 188.14 147.17C188.14 151.86 191.84 155.68 196.47 155.87L196.47 155.87L254.47 155.87C259.28 155.87 263.17 159.77 263.17 164.57C263.17 169.38 259.28 173.27 254.47 173.27L239.97 173.27L239.97 173.28C235.34 173.47 231.64 177.29 231.64 181.97C231.64 186.66 235.34 190.48 239.97 190.67L239.97 190.67L240.7 190.67C245.5 190.67 249.4 194.57 249.4 199.38C249.4 204.18 245.5 208.07 240.7 208.07L185.6 208.07C180.8 208.07 176.9 204.18 176.9 199.38C176.9 194.57 180.8 190.67 185.6 190.67L189.95 190.67C194.75 190.67 198.65 186.78 198.65 181.97C198.65 177.17 194.75 173.27 189.95 173.27L87 173.27C82.2 173.27 78.3 169.38 78.3 164.57C78.3 159.77 82.2 155.87 87 155.87L93.52 155.87C98.33 155.87 102.22 151.98 102.22 147.17C102.22 142.37 98.33 138.47 93.52 138.47L42.77 138.47C37.97 138.47 34.07 134.58 34.07 129.77C34.07 124.97 37.97 121.07 42.77 121.07L210.25 121.07ZM84.82 190.67C89.63 190.67 93.52 194.57 93.52 199.38C93.52 204.18 89.63 208.07 84.82 208.07L29.72 208.07C24.92 208.07 21.02 204.18 21.02 199.38C21.02 194.57 24.92 190.67 29.72 190.67L84.82 190.67ZM321.17 155.87C325.98 155.87 329.87 159.77 329.87 164.57C329.87 169.38 325.98 173.27 321.17 173.27L291.45 173.27C286.65 173.27 282.75 169.38 282.75 164.57C282.75 159.77 286.65 155.87 291.45 155.87L321.17 155.87ZM-6.89 121.07C-2.08 121.07 1.81 124.97 1.81 129.77C1.81 134.58 -2.08 138.47 -6.89 138.47L-38.79 138.47C-43.59 138.47 -47.49 134.58 -47.49 129.77C-47.49 124.97 -43.59 121.07 -38.79 121.07L-6.89 121.07ZM201.55 86.27C206.35 86.27 210.25 90.17 210.25 94.97C210.25 99.78 206.35 103.67 201.55 103.67L156.6 103.67C151.8 103.67 147.9 99.78 147.9 94.97C147.9 90.17 151.8 86.27 156.6 86.27L201.55 86.27ZM100.77 86.27C105.58 86.27 109.47 90.17 109.47 94.97C109.47 99.78 105.58 103.67 100.77 103.67L86.27 103.67C81.47 103.67 77.57 99.78 77.57 94.97C77.57 90.17 81.47 86.27 86.27 86.27L100.77 86.27ZM215.32 16.67C220.13 16.67 224.02 20.57 224.02 25.37C224.02 30.18 220.13 34.07 215.32 34.07L166.02 34.07L166.02 34.08C161.39 34.27 157.69 38.09 157.69 42.77C157.69 47.46 161.39 51.28 166.02 51.47L166.02 51.47L168.2 51.47C173 51.47 176.9 55.37 176.9 60.17C176.9 64.98 173 68.87 168.2 68.87L113.1 68.87C108.3 68.87 104.4 64.98 104.4 60.17C104.4 55.37 108.3 51.47 113.1 51.47L116 51.47C120.8 51.47 124.7 47.58 124.7 42.77C124.7 37.97 120.8 34.07 116 34.07L29 34.07C24.2 34.07 20.3 30.18 20.3 25.37C20.3 20.57 24.2 16.67 29 16.67L215.32 16.67ZM217.5 51.47C222.3 51.47 226.2 55.37 226.2 60.17C226.2 64.98 222.3 68.87 217.5 68.87L203 68.87C198.2 68.87 194.3 64.98 194.3 60.17C194.3 55.37 198.2 51.47 203 51.47L217.5 51.47ZM78.3 51.47C83.1 51.47 87 55.37 87 60.17C87 64.98 83.1 68.87 78.3 68.87L63.8 68.87C59 68.87 55.1 64.98 55.1 60.17C55.1 55.37 59 51.47 63.8 51.47L78.3 51.47Z" />
		</g>
		<g id="Clip-Path" clip-path="url(#cp2)">
			<path id="Layer" fill-rule="evenodd" class="shp2" d="M148.62 190.67C153.43 190.67 157.32 194.57 157.32 199.38C157.32 204.18 153.43 208.07 148.62 208.07L103.67 208.07C98.87 208.07 94.97 204.18 94.97 199.38C94.97 194.57 98.87 190.67 103.67 190.67L148.62 190.67ZM71.77 147.17C71.77 142.37 67.88 138.47 63.07 138.47L1.45 138.47C-3.35 138.47 -7.25 134.58 -7.25 129.77C-7.25 124.97 -3.35 121.07 1.45 121.07L11.6 121.07C16.4 121.07 20.3 117.18 20.3 112.37C20.3 107.57 16.4 103.67 11.6 103.67L-10.15 103.67C-14.95 103.67 -18.85 99.78 -18.85 94.97C-18.85 90.17 -14.95 86.27 -10.15 86.27L102.95 86.27C107.75 86.27 111.65 90.17 111.65 94.97C111.65 99.78 107.75 103.67 102.95 103.67L46.4 103.67L46.4 103.68C41.76 103.87 38.06 107.69 38.06 112.37C38.06 117.06 41.76 120.88 46.4 121.07L46.4 121.07L162.4 121.07C167.2 121.07 171.1 124.97 171.1 129.77C171.1 134.58 167.2 138.47 162.4 138.47L113.1 138.47L113.1 138.48C108.46 138.67 104.76 142.49 104.76 147.17C104.76 151.86 108.46 155.68 113.1 155.87L113.1 155.87L115.27 155.87C120.08 155.87 123.97 159.77 123.97 164.57C123.97 169.38 120.08 173.27 115.27 173.27L60.17 173.27C55.37 173.27 51.47 169.38 51.47 164.57C51.47 159.77 55.37 155.87 60.17 155.87L63.07 155.87C67.88 155.87 71.77 151.98 71.77 147.17ZM164.57 155.87C169.38 155.87 173.27 159.77 173.27 164.57C173.27 169.38 169.38 173.27 164.57 173.27L150.07 173.27C145.27 173.27 141.37 169.38 141.37 164.57C141.37 159.77 145.27 155.87 150.07 155.87L164.57 155.87ZM292.17 155.87C296.98 155.87 300.87 159.77 300.87 164.57C300.87 169.38 296.98 173.27 292.17 173.27L218.95 173.27C214.15 173.27 210.25 169.38 210.25 164.57C210.25 159.77 214.15 155.87 218.95 155.87L292.17 155.87ZM25.37 155.87C30.18 155.87 34.07 159.77 34.07 164.57C34.07 169.38 30.18 173.27 25.37 173.27L10.87 173.27C6.07 173.27 2.17 169.38 2.17 164.57C2.17 159.77 6.07 155.87 10.87 155.87L25.37 155.87ZM252.3 121.07C257.1 121.07 261 124.97 261 129.77C261 134.58 257.1 138.47 252.3 138.47L237.8 138.47C233 138.47 229.1 134.58 229.1 129.77C229.1 124.97 233 121.07 237.8 121.07L252.3 121.07Z" />
		</g>
		<g id="Clip-Path" clip-path="url(#cp3)">
			<path id="Layer" class="shp3" d="M145.72 -18.13L308.85 -18.13L308.85 308.13L145.72 308.13L145.72 -18.13Z" />
		</g>
	</g>
</svg>