<svg version="1.2" baseProfile="tiny-ps" xmlns="http://www.w3.org/2000/svg" viewBox="0 0 290 290" width="290" height="290">
	<title>planet-uranus-svg</title>
	<defs>
		<clipPath clipPathUnits="userSpaceOnUse" id="cp1">
			<path d="M145 290C64.81 290 0 225.19 0 145C0 64.81 64.81 0 145 0C225.19 0 290 64.81 290 145C290 225.19 225.19 290 145 290Z" />
		</clipPath>
		<clipPath clipPathUnits="userSpaceOnUse" id="cp2">
			<path d="M145 290C64.81 290 0 225.19 0 145C0 64.81 64.81 0 145 0C225.19 0 290 64.81 290 145C290 225.19 225.19 290 145 290Z" />
		</clipPath>
		<clipPath clipPathUnits="userSpaceOnUse" id="cp3">
			<path d="M145 290C64.81 290 0 225.19 0 145C0 64.81 64.81 0 145 0C225.19 0 290 64.81 290 145C290 225.19 225.19 290 145 290Z" />
		</clipPath>
		<clipPath clipPathUnits="userSpaceOnUse" id="cp4">
			<path d="M145 290C64.81 290 0 225.19 0 145C0 64.81 64.81 0 145 0C225.19 0 290 64.81 290 145C290 225.19 225.19 290 145 290Z" />
		</clipPath>
	</defs>
	<style>
		tspan { white-space:pre }
		.shp0 { fill: #65f0d5 } 
		.shp1 { fill: #49cbc2 } 
		.shp2 { fill: #50decd } 
		.shp3 { fill: #77fff5 } 
		.shp4 { opacity: 0.078;fill: #000000 } 
	</style>
	<path id="Layer" class="shp0" d="M145 290C64.81 290 0 225.19 0 145C0 64.81 64.81 0 145 0C225.19 0 290 64.81 290 145C290 225.19 225.19 290 145 290Z" />
	<g id="Clip-Path" clip-path="url(#cp1)">
		<g id="Layer">
			<path id="Layer" fill-rule="evenodd" class="shp1" d="M281.84 -94.98C281.84 -90.78 278.44 -87.38 274.25 -87.38C270.05 -87.38 266.65 -90.78 266.65 -94.98L266.65 -193.76C266.65 -197.95 270.05 -201.35 274.25 -201.35C278.44 -201.35 281.84 -197.95 281.84 -193.76L281.84 -94.98ZM281.84 44.32C281.84 48.52 278.44 51.92 274.25 51.92C270.05 51.92 266.65 48.52 266.65 44.32L266.65 -5.07L266.64 -5.07C266.48 -9.11 263.14 -12.35 259.05 -12.35C254.96 -12.35 251.62 -9.11 251.46 -5.07L251.45 -5.07L251.45 96.24C251.45 100.44 248.05 103.84 243.85 103.84C239.66 103.84 236.26 100.44 236.26 96.24L236.26 -66.48C236.26 -70.68 239.66 -74.08 243.85 -74.08C248.05 -74.08 251.45 -70.68 251.45 -66.48L251.45 -35.46C251.45 -31.26 254.85 -27.86 259.05 -27.86C263.25 -27.86 266.65 -31.26 266.65 -35.46L266.65 -54.45C266.65 -58.65 270.05 -62.05 274.25 -62.05C278.44 -62.05 281.84 -58.65 281.84 -54.45L281.84 44.32ZM221.06 -85.48C221.06 -81.28 217.66 -77.88 213.46 -77.88C209.26 -77.88 205.86 -81.28 205.86 -85.48L205.86 -131.7C205.86 -135.9 209.26 -139.3 213.46 -139.3C217.66 -139.3 221.06 -135.9 221.06 -131.7L221.06 -85.48ZM221.06 96.24C221.06 100.44 217.66 103.84 213.46 103.84C209.26 103.84 205.86 100.44 205.86 96.24L205.86 50.02C205.86 45.83 209.26 42.42 213.46 42.42C217.66 42.42 221.06 45.83 221.06 50.02L221.06 96.24ZM205.86 255.81L205.86 150.7C205.86 146.5 209.26 143.1 213.46 143.1C217.66 143.1 221.06 146.5 221.06 150.7L221.06 255.81C221.06 260 217.66 263.41 213.46 263.41C209.26 263.41 205.86 260 205.86 255.81ZM266.65 89.91C266.65 85.72 270.05 82.31 274.25 82.31C278.44 82.31 281.84 85.72 281.84 89.91L281.84 188.69C281.84 192.89 278.44 196.29 274.25 196.29C270.05 196.29 266.65 192.89 266.65 188.69L266.65 173.49L266.64 173.49C266.48 169.44 263.14 166.21 259.05 166.21C254.96 166.21 251.62 169.44 251.46 173.49L251.45 173.49L251.45 300.13C251.45 304.33 248.05 307.73 243.85 307.73C239.66 307.73 236.26 304.33 236.26 300.13L236.26 137.4C236.26 133.21 239.66 129.8 243.85 129.8C248.05 129.8 251.45 133.21 251.45 137.4L251.45 143.1C251.45 147.3 254.85 150.7 259.05 150.7C263.25 150.7 266.65 147.3 266.65 143.1L266.65 89.91ZM266.65 324.19L266.65 225.41C266.65 221.22 270.05 217.82 274.25 217.82C278.44 217.82 281.84 221.22 281.84 225.41L281.84 324.19C281.84 328.39 278.44 331.79 274.25 331.79C270.05 331.79 266.65 328.39 266.65 324.19Z" />
		</g>
	</g>
	<g id="Clip-Path" clip-path="url(#cp2)">
		<g id="Layer">
			<path id="Layer" fill-rule="evenodd" class="shp2" d="M114.68 -238.08C114.68 -242.27 118.09 -245.68 122.28 -245.68C126.48 -245.68 129.88 -242.27 129.88 -238.08L129.88 -139.3C129.88 -135.11 126.48 -131.7 122.28 -131.7C118.09 -131.7 114.68 -135.11 114.68 -139.3L114.68 -238.08ZM114.68 -98.78C114.68 -102.97 118.09 -106.38 122.28 -106.38C126.48 -106.38 129.88 -102.97 129.88 -98.78L129.88 -79.78C129.88 -75.59 133.28 -72.18 137.48 -72.18C141.67 -72.18 145.08 -75.59 145.08 -79.78L145.08 -110.81C145.08 -115 148.48 -118.41 152.67 -118.41C156.87 -118.41 160.27 -115 160.27 -110.81L160.27 51.92C160.27 56.12 156.87 59.52 152.67 59.52C148.48 59.52 145.08 56.12 145.08 51.92L145.08 -49.39L145.07 -49.39C144.9 -53.44 141.57 -56.67 137.48 -56.67C133.39 -56.67 130.05 -53.44 129.89 -49.39L129.88 -49.39L129.88 0C129.88 4.2 126.48 7.6 122.28 7.6C118.09 7.6 114.68 4.2 114.68 0L114.68 -98.78ZM175.47 -176.03C175.47 -180.22 178.87 -183.62 183.07 -183.62C187.26 -183.62 190.67 -180.22 190.67 -176.03L190.67 -129.8C190.67 -125.61 187.26 -122.21 183.07 -122.21C178.87 -122.21 175.47 -125.61 175.47 -129.8L175.47 -176.03ZM175.47 5.7C175.47 1.5 178.87 -1.9 183.07 -1.9C187.26 -1.9 190.67 1.5 190.67 5.7L190.67 51.92C190.67 56.12 187.26 59.52 183.07 59.52C178.87 59.52 175.47 56.12 175.47 51.92L175.47 5.7ZM183.07 219.08C178.87 219.08 175.47 215.68 175.47 211.48L175.47 106.38C175.47 102.18 178.87 98.78 183.07 98.78C187.26 98.78 190.67 102.18 190.67 106.38L190.67 211.48C190.67 215.68 187.26 219.08 183.07 219.08ZM129.88 98.78C129.88 102.97 133.28 106.38 137.48 106.38C141.67 106.38 145.08 102.97 145.08 98.78L145.08 93.08C145.08 88.88 148.48 85.48 152.67 85.48C156.87 85.48 160.27 88.88 160.27 93.08L160.27 255.81C160.27 260 156.87 263.41 152.67 263.41C148.48 263.41 145.08 260 145.08 255.81L145.08 129.17L145.07 129.17C144.9 125.12 141.57 121.89 137.48 121.89C133.39 121.89 130.05 125.12 129.89 129.17L129.88 129.17L129.88 144.37C129.88 148.56 126.48 151.97 122.28 151.97C118.09 151.97 114.68 148.56 114.68 144.37L114.68 45.59C114.68 41.39 118.09 37.99 122.28 37.99C126.48 37.99 129.88 41.39 129.88 45.59L129.88 98.78ZM122.28 287.47C118.09 287.47 114.68 284.07 114.68 279.87L114.68 181.09C114.68 176.9 118.09 173.49 122.28 173.49C126.48 173.49 129.88 176.9 129.88 181.09L129.88 279.87C129.88 284.07 126.48 287.47 122.28 287.47Z" />
		</g>
	</g>
	<g id="Clip-Path" clip-path="url(#cp3)">
		<g id="Layer">
			<path id="Layer" fill-rule="evenodd" class="shp3" d="M99.49 -160.2C99.49 -156 96.08 -152.6 91.89 -152.6C87.69 -152.6 84.29 -156 84.29 -160.2L84.29 -258.97C84.29 -263.17 87.69 -266.57 91.89 -266.57C96.08 -266.57 99.49 -263.17 99.49 -258.97L99.49 -160.2ZM99.49 -20.9C99.49 -16.7 96.08 -13.3 91.89 -13.3C87.69 -13.3 84.29 -16.7 84.29 -20.9L84.29 -70.28L84.28 -70.28C84.12 -74.33 80.78 -77.57 76.69 -77.57C72.6 -77.57 69.27 -74.33 69.1 -70.28L69.09 -70.28L69.09 31.03C69.09 35.22 65.69 38.62 61.5 38.62C57.3 38.62 53.9 35.22 53.9 31.03L53.9 -131.7C53.9 -135.9 57.3 -139.3 61.5 -139.3C65.69 -139.3 69.09 -135.9 69.09 -131.7L69.09 -100.68C69.09 -96.48 72.5 -93.08 76.69 -93.08C80.89 -93.08 84.29 -96.48 84.29 -100.68L84.29 -119.67C84.29 -123.87 87.69 -127.27 91.89 -127.27C96.08 -127.27 99.49 -123.87 99.49 -119.67L99.49 -20.9ZM38.7 -150.7C38.7 -146.5 35.3 -143.1 31.1 -143.1C26.91 -143.1 23.5 -146.5 23.5 -150.7L23.5 -196.92C23.5 -201.12 26.91 -204.52 31.1 -204.52C35.3 -204.52 38.7 -201.12 38.7 -196.92L38.7 -150.7ZM38.7 31.03C38.7 35.22 35.3 38.62 31.1 38.62C26.91 38.62 23.5 35.22 23.5 31.03L23.5 -15.2C23.5 -19.39 26.91 -22.79 31.1 -22.79C35.3 -22.79 38.7 -19.39 38.7 -15.2L38.7 31.03ZM23.5 190.59L23.5 85.48C23.5 81.28 26.91 77.88 31.1 77.88C35.3 77.88 38.7 81.28 38.7 85.48L38.7 190.59C38.7 194.79 35.3 198.19 31.1 198.19C26.91 198.19 23.5 194.79 23.5 190.59ZM84.29 24.69C84.29 20.5 87.69 17.1 91.89 17.1C96.08 17.1 99.49 20.5 99.49 24.69L99.49 123.47C99.49 127.67 96.08 131.07 91.89 131.07C87.69 131.07 84.29 127.67 84.29 123.47L84.29 108.28L84.28 108.28C84.12 104.23 80.78 100.99 76.69 100.99C72.6 100.99 69.27 104.23 69.1 108.28L69.09 108.28L69.09 234.91C69.09 239.11 65.69 242.51 61.5 242.51C57.3 242.51 53.9 239.11 53.9 234.91L53.9 72.18C53.9 67.99 57.3 64.59 61.5 64.59C65.69 64.59 69.09 67.99 69.09 72.18L69.09 77.88C69.09 82.08 72.5 85.48 76.69 85.48C80.89 85.48 84.29 82.08 84.29 77.88L84.29 24.69ZM84.29 258.97L84.29 160.2C84.29 156 87.69 152.6 91.89 152.6C96.08 152.6 99.49 156 99.49 160.2L99.49 258.97C99.49 263.17 96.08 266.57 91.89 266.57C87.69 266.57 84.29 263.17 84.29 258.97Z" />
		</g>
	</g>
	<g id="Clip-Path" clip-path="url(#cp4)">
		<g id="Layer">
			<path id="Layer" class="shp4" d="M145 0L290 0L290 290L145 290L145 0Z" />
		</g>
	</g>
</svg>