<svg version="1.2" baseProfile="tiny-ps" xmlns="http://www.w3.org/2000/svg" viewBox="0 0 290 290" width="290" height="290">
	<title>planet-earth-svg</title>
	<defs>
		<clipPath clipPathUnits="userSpaceOnUse" id="cp1">
			<path d="M145 290C64.81 290 0 225.19 0 145C0 64.81 64.81 0 145 0C225.19 0 290 64.81 290 145C290 225.19 225.19 290 145 290Z" />
		</clipPath>
		<clipPath clipPathUnits="userSpaceOnUse" id="cp2">
			<path d="M145 290C64.81 290 0 225.19 0 145C0 64.81 64.81 0 145 0C225.19 0 290 64.81 290 145C290 225.19 225.19 290 145 290Z" />
		</clipPath>
		<clipPath clipPathUnits="userSpaceOnUse" id="cp3">
			<path d="M145 290C64.81 290 0 225.19 0 145C0 64.81 64.81 0 145 0C225.19 0 290 64.81 290 145C290 225.19 225.19 290 145 290Z" />
		</clipPath>
		<clipPath clipPathUnits="userSpaceOnUse" id="cp4">
			<path d="M145 290C64.81 290 0 225.19 0 145C0 64.81 64.81 0 145 0C225.19 0 290 64.81 290 145C290 225.19 225.19 290 145 290Z" />
		</clipPath>
		<clipPath clipPathUnits="userSpaceOnUse" id="cp5">
			<path d="M145 290C64.81 290 0 225.19 0 145C0 64.81 64.81 0 145 0C225.19 0 290 64.81 290 145C290 225.19 225.19 290 145 290Z" />
		</clipPath>
		<clipPath clipPathUnits="userSpaceOnUse" id="cp6">
			<path d="M145 290C64.81 290 0 225.19 0 145C0 64.81 64.81 0 145 0C225.19 0 290 64.81 290 145C290 225.19 225.19 290 145 290Z" />
		</clipPath>
	</defs>
	<style>
		tspan { white-space:pre }
		.shp0 { fill: #545bfe } 
		.shp1 { fill: #4fcdf9 } 
		.shp2 { fill: #ffffff } 
		.shp3 { opacity: 0.078;fill: #000000 } 
	</style>
	<g id="Layer">
		<path id="Layer" class="shp0" d="M145 290C64.81 290 0 225.19 0 145C0 64.81 64.81 0 145 0C225.19 0 290 64.81 290 145C290 225.19 225.19 290 145 290Z" />
		<g id="Clip-Path" clip-path="url(#cp1)">
			<path id="Layer" class="shp1" d="M86.36 226.2C90.63 226.2 94.09 222.74 94.09 218.47C94.09 214.2 90.63 210.73 86.36 210.73L74.11 210.73C69.84 210.73 66.38 207.27 66.38 203C66.38 198.73 69.84 195.27 74.11 195.27L72.82 195.27C77.09 195.27 80.56 191.8 80.56 187.53C80.56 183.26 77.09 179.8 72.82 179.8L66.38 179.8C62.11 179.8 58.64 176.34 58.64 172.07C58.64 167.8 62.11 164.33 66.38 164.33C70.65 164.33 74.11 160.87 74.11 156.6C74.11 152.33 70.65 148.87 66.38 148.87C62.11 148.87 58.64 145.4 58.64 141.13C58.64 136.86 62.11 133.4 66.38 133.4L97.96 133.4C102.23 133.4 105.69 136.86 105.69 141.13C105.69 145.4 102.23 148.87 97.96 148.87L99.24 148.87L99.24 148.87C95.12 149.04 91.83 152.44 91.83 156.6C91.83 160.76 95.12 164.16 99.24 164.33L99.24 164.33L132.11 164.33C136.38 164.33 139.84 167.8 139.84 172.07C139.84 176.34 136.38 179.8 132.11 179.8L128.24 179.8L128.24 179.81C124.12 179.98 120.83 183.37 120.83 187.53C120.83 191.7 124.12 195.09 128.24 195.26L128.24 195.27C132.52 195.27 135.98 198.73 135.98 203C135.98 207.27 132.52 210.73 128.24 210.73L110.84 210.73L110.84 210.74C106.72 210.91 103.43 214.3 103.43 218.47C103.43 222.63 106.72 226.02 110.84 226.19L110.84 226.2L108.27 226.2C112.54 226.2 116 229.66 116 233.93C116 238.2 112.54 241.67 108.27 241.67L89.58 241.67C85.31 241.67 81.84 238.2 81.84 233.93C81.84 229.66 85.31 226.2 89.58 226.2L86.36 226.2ZM31.58 117.93C35.85 117.93 39.31 121.4 39.31 125.67C39.31 129.94 35.85 133.4 31.58 133.4L9.02 133.4C4.75 133.4 1.29 129.94 1.29 125.67C1.29 121.4 4.75 117.93 9.02 117.93L31.58 117.93ZM63.16 102.47C67.43 102.47 70.89 105.93 70.89 110.2C70.89 114.47 67.43 117.93 63.16 117.93C58.88 117.93 55.42 114.47 55.42 110.2C55.42 105.93 58.88 102.47 63.16 102.47ZM113.42 9.67C117.69 9.67 121.16 13.13 121.16 17.4C121.16 21.67 117.69 25.13 113.42 25.13L112.78 25.13L112.78 25.14C108.66 25.31 105.37 28.7 105.37 32.87C105.37 37.03 108.66 40.42 112.78 40.59L112.78 40.6L117.29 40.6C121.56 40.6 125.02 44.06 125.02 48.33C125.02 52.6 121.56 56.07 117.29 56.07L72.82 56.07L72.82 56.07C68.7 56.24 65.41 59.64 65.41 63.8C65.41 67.96 68.7 71.36 72.82 71.53L72.82 71.53L76.04 71.53C80.32 71.53 83.78 75 83.78 79.27C83.78 83.54 80.32 87 76.04 87L-0.64 87C-4.92 87 -8.38 83.54 -8.38 79.27C-8.38 75 -4.92 71.53 -0.64 71.53L5.8 71.53C10.07 71.53 13.53 68.07 13.53 63.8C13.53 59.53 10.07 56.07 5.8 56.07L8.38 56.07C4.11 56.07 0.64 52.6 0.64 48.33C0.64 44.06 4.11 40.6 8.38 40.6L12.24 40.6C16.52 40.6 19.98 37.14 19.98 32.87C19.98 28.6 16.52 25.13 12.24 25.13L-18.69 25.13C-22.96 25.13 -26.42 21.67 -26.42 17.4C-26.42 13.13 -22.96 9.67 -18.69 9.67L113.42 9.67Z" />
		</g>
		<g id="Clip-Path" clip-path="url(#cp2)">
			<path id="Layer" fill-rule="evenodd" class="shp1" d="M251.33 210.73C255.6 210.73 259.07 207.27 259.07 203C259.07 198.73 255.6 195.27 251.33 195.27C247.06 195.27 243.6 191.8 243.6 187.53C243.6 183.26 247.06 179.8 251.33 179.8L249.4 179.8C253.67 179.8 257.13 176.34 257.13 172.07C257.13 167.8 253.67 164.33 249.4 164.33L220.4 164.33C216.13 164.33 212.67 160.87 212.67 156.6C212.67 152.33 216.13 148.87 220.4 148.87C224.67 148.87 228.13 145.4 228.13 141.13C228.13 136.86 224.67 133.4 220.4 133.4L198.49 133.4C194.22 133.4 190.76 129.94 190.76 125.67C190.76 121.4 194.22 117.93 198.49 117.93L215.24 117.93C219.52 117.93 222.98 114.47 222.98 110.2C222.98 105.93 219.52 102.47 215.24 102.47C210.97 102.47 207.51 99 207.51 94.73C207.51 90.46 210.97 87 215.24 87L251.33 87C255.6 87 259.07 90.46 259.07 94.73C259.07 99 255.6 102.47 251.33 102.47L251.33 102.47C247.21 102.64 243.92 106.04 243.92 110.2C243.92 114.36 247.21 117.76 251.33 117.93L251.33 117.93L309.98 117.93C314.25 117.93 317.71 121.4 317.71 125.67C317.71 129.94 314.25 133.4 309.98 133.4L297.09 133.4L297.09 133.41C292.97 133.58 289.68 136.97 289.68 141.13C289.68 145.3 292.97 148.69 297.09 148.86L297.09 148.87L303.53 148.87C307.8 148.87 311.27 152.33 311.27 156.6C311.27 160.87 307.8 164.33 303.53 164.33L293.87 164.33L293.87 164.34C289.74 164.51 286.46 167.9 286.46 172.07C286.46 176.23 289.74 179.62 293.87 179.79L293.87 179.8L292.58 179.8C296.85 179.8 300.31 183.26 300.31 187.53C300.31 191.8 296.85 195.27 292.58 195.27L279.69 195.27L279.69 195.27C275.57 195.44 272.28 198.84 272.28 203C272.28 207.16 275.57 210.56 279.69 210.73L279.69 210.73L277.11 210.73C281.38 210.73 284.84 214.2 284.84 218.47C284.84 222.74 281.38 226.2 277.11 226.2L253.91 226.2C249.64 226.2 246.18 222.74 246.18 218.47C246.18 214.2 249.64 210.73 253.91 210.73L251.33 210.73ZM309.33 195.27C313.6 195.27 317.07 198.73 317.07 203C317.07 207.27 313.6 210.73 309.33 210.73C305.06 210.73 301.6 207.27 301.6 203C301.6 198.73 305.06 195.27 309.33 195.27ZM297.73 87C302 87 305.47 90.46 305.47 94.73C305.47 99 302 102.47 297.73 102.47L288.71 102.47C284.44 102.47 280.98 99 280.98 94.73C280.98 90.46 284.44 87 288.71 87L297.73 87ZM425.33 40.6C429.6 40.6 433.07 44.06 433.07 48.33C433.07 52.6 429.6 56.07 425.33 56.07L420.82 56.07L420.82 56.07C416.7 56.24 413.41 59.64 413.41 63.8C413.41 67.96 416.7 71.36 420.82 71.53L420.82 71.53L431.13 71.53C435.4 71.53 438.87 75 438.87 79.27C438.87 83.54 435.4 87 431.13 87L319 87C314.73 87 311.27 83.54 311.27 79.27C311.27 75 314.73 71.53 319 71.53L315.78 71.53C320.05 71.53 323.51 68.07 323.51 63.8C323.51 59.53 320.05 56.07 315.78 56.07L289.36 56.07C285.08 56.07 281.62 52.6 281.62 48.33C281.62 44.06 285.08 40.6 289.36 40.6L425.33 40.6ZM231.36 56.07C235.63 56.07 239.09 59.53 239.09 63.8C239.09 68.07 235.63 71.53 231.36 71.53L215.89 71.53C211.62 71.53 208.16 68.07 208.16 63.8C208.16 59.53 211.62 56.07 215.89 56.07L231.36 56.07ZM255.84 56.07C260.12 56.07 263.58 59.53 263.58 63.8C263.58 68.07 260.12 71.53 255.84 71.53L253.91 71.53C249.64 71.53 246.18 68.07 246.18 63.8C246.18 59.53 249.64 56.07 253.91 56.07L255.84 56.07ZM264.22 25.13C268.49 25.13 271.96 28.6 271.96 32.87C271.96 37.14 268.49 40.6 264.22 40.6L248.76 40.6C244.48 40.6 241.02 37.14 241.02 32.87C241.02 28.6 244.48 25.13 248.76 25.13L264.22 25.13Z" />
		</g>
		<g id="Clip-Path" clip-path="url(#cp3)">
			<path id="Layer" fill-rule="evenodd" class="shp2" d="M266.16 71.53C270.43 71.53 273.89 75 273.89 79.27C273.89 83.54 270.43 87 266.16 87L226.2 87C221.93 87 218.47 83.54 218.47 79.27C218.47 75 221.93 71.53 226.2 71.53L266.16 71.53ZM197.84 32.87C197.84 28.6 194.38 25.13 190.11 25.13L112.78 25.13C108.51 25.13 105.04 21.67 105.04 17.4C105.04 13.13 108.51 9.67 112.78 9.67L144.36 9.67C148.63 9.67 152.09 6.2 152.09 1.93C152.09 -2.34 148.63 -5.8 144.36 -5.8L134.04 -5.8C129.77 -5.8 126.31 -9.26 126.31 -13.53C126.31 -17.8 129.77 -21.27 134.04 -21.27L174 -21.27C178.27 -21.27 181.73 -17.8 181.73 -13.53C181.73 -9.26 178.27 -5.8 174 -5.8L175.29 -5.8L175.29 -5.79C171.17 -5.62 167.88 -2.23 167.88 1.93C167.88 6.1 171.17 9.49 175.29 9.66L175.29 9.67L278.4 9.67C282.67 9.67 286.13 13.13 286.13 17.4C286.13 21.67 282.67 25.13 278.4 25.13L234.58 25.13L234.58 25.14C230.46 25.31 227.17 28.7 227.17 32.87C227.17 37.03 230.46 40.42 234.58 40.59L234.58 40.6L236.51 40.6C240.78 40.6 244.24 44.06 244.24 48.33C244.24 52.6 240.78 56.07 236.51 56.07L187.53 56.07C183.26 56.07 179.8 52.6 179.8 48.33C179.8 44.06 183.26 40.6 187.53 40.6L190.11 40.6C194.38 40.6 197.84 37.14 197.84 32.87ZM280.33 40.6C284.6 40.6 288.07 44.06 288.07 48.33C288.07 52.6 284.6 56.07 280.33 56.07L267.44 56.07C263.17 56.07 259.71 52.6 259.71 48.33C259.71 44.06 263.17 40.6 267.44 40.6L280.33 40.6ZM156.6 40.6C160.87 40.6 164.33 44.06 164.33 48.33C164.33 52.6 160.87 56.07 156.6 56.07L143.71 56.07C139.44 56.07 135.98 52.6 135.98 48.33C135.98 44.06 139.44 40.6 143.71 40.6L156.6 40.6ZM305.47 -21.27C309.74 -21.27 313.2 -17.8 313.2 -13.53C313.2 -9.26 309.74 -5.8 305.47 -5.8L204.93 -5.8C200.66 -5.8 197.2 -9.26 197.2 -13.53C197.2 -17.8 200.66 -21.27 204.93 -21.27L305.47 -21.27Z" />
		</g>
		<g id="Clip-Path" clip-path="url(#cp4)">
			<path id="Layer" class="shp2" d="M62.51 233.93C62.51 229.66 59.05 226.2 54.78 226.2L10.96 226.2C6.68 226.2 3.22 222.74 3.22 218.47C3.22 214.2 6.68 210.73 10.96 210.73L76.04 210.73C80.32 210.73 83.78 207.27 83.78 203C83.78 198.73 80.32 195.27 76.04 195.27L61.22 195.27C56.95 195.27 53.49 191.8 53.49 187.53C53.49 183.26 56.95 179.8 61.22 179.8L137.27 179.8C141.54 179.8 145 183.26 145 187.53C145 191.8 141.54 195.27 137.27 195.27L106.98 195.27L106.98 195.27C102.86 195.44 99.57 198.84 99.57 203C99.57 207.16 102.86 210.56 106.98 210.73L106.98 210.73L116 210.73C120.27 210.73 123.73 214.2 123.73 218.47C123.73 222.74 120.27 226.2 116 226.2L99.24 226.2L99.24 226.21C95.12 226.38 91.83 229.77 91.83 233.93C91.83 238.1 95.12 241.49 99.24 241.66L99.24 241.67L101.18 241.67C105.45 241.67 108.91 245.13 108.91 249.4C108.91 253.67 105.45 257.13 101.18 257.13L52.2 257.13C47.93 257.13 44.47 253.67 44.47 249.4C44.47 245.13 47.93 241.67 52.2 241.67L54.78 241.67C59.05 241.67 62.51 238.2 62.51 233.93ZM159.82 210.73C164.09 210.73 167.56 214.2 167.56 218.47C167.56 222.74 164.09 226.2 159.82 226.2L146.93 226.2C142.66 226.2 139.2 222.74 139.2 218.47C139.2 214.2 142.66 210.73 146.93 210.73L159.82 210.73Z" />
		</g>
		<g id="Clip-Path" clip-path="url(#cp5)">
			<path id="Layer" class="shp2" d="M224.91 295.8C224.91 291.53 221.45 288.07 217.18 288.07L173.36 288.07C169.08 288.07 165.62 284.6 165.62 280.33C165.62 276.06 169.08 272.6 173.36 272.6L238.44 272.6C242.72 272.6 246.18 269.14 246.18 264.87C246.18 260.6 242.72 257.13 238.44 257.13L223.62 257.13C219.35 257.13 215.89 253.67 215.89 249.4C215.89 245.13 219.35 241.67 223.62 241.67L299.67 241.67C303.94 241.67 307.4 245.13 307.4 249.4C307.4 253.67 303.94 257.13 299.67 257.13L269.38 257.13L269.38 257.14C265.26 257.31 261.97 260.7 261.97 264.87C261.97 269.03 265.26 272.42 269.38 272.59L269.38 272.6L278.4 272.6C282.67 272.6 286.13 276.06 286.13 280.33C286.13 284.6 282.67 288.07 278.4 288.07L261.64 288.07L261.64 288.07C257.52 288.24 254.23 291.64 254.23 295.8C254.23 299.96 257.52 303.36 261.64 303.53L261.64 303.53L263.58 303.53C267.85 303.53 271.31 307 271.31 311.27C271.31 315.54 267.85 319 263.58 319L214.6 319C210.33 319 206.87 315.54 206.87 311.27C206.87 307 210.33 303.53 214.6 303.53L217.18 303.53C221.45 303.53 224.91 300.07 224.91 295.8ZM322.22 272.6C326.49 272.6 329.96 276.06 329.96 280.33C329.96 284.6 326.49 288.07 322.22 288.07L309.33 288.07C305.06 288.07 301.6 284.6 301.6 280.33C301.6 276.06 305.06 272.6 309.33 272.6L322.22 272.6Z" />
		</g>
		<g id="Clip-Path" clip-path="url(#cp6)">
			<path id="Layer" class="shp3" d="M145.31 -16.11L306.73 -16.11L306.73 306.11L145.31 306.11L145.31 -16.11Z" />
		</g>
	</g>
</svg>