<svg version="1.2" baseProfile="tiny-ps" xmlns="http://www.w3.org/2000/svg" viewBox="0 0 290 290" width="290" height="290">
	<title>planet-jupiter-internal-svg</title>
	<defs>
		<clipPath clipPathUnits="userSpaceOnUse" id="cp1">
			<path d="M145 290C64.81 290 0 225.19 0 145C0 64.81 64.81 0 145 0C225.19 0 290 64.81 290 145C290 225.19 225.19 290 145 290Z" />
		</clipPath>
		<clipPath clipPathUnits="userSpaceOnUse" id="cp2">
			<path d="M145 290C64.81 290 0 225.19 0 145C0 64.81 64.81 0 145 0C225.19 0 290 64.81 290 145C290 225.19 225.19 290 145 290Z" />
		</clipPath>
		<clipPath clipPathUnits="userSpaceOnUse" id="cp3">
			<path d="M145 290C64.81 290 0 225.19 0 145C0 64.81 64.81 0 145 0C225.19 0 290 64.81 290 145C290 225.19 225.19 290 145 290Z" />
		</clipPath>
		<clipPath clipPathUnits="userSpaceOnUse" id="cp4">
			<path d="M145 290C64.81 290 0 225.19 0 145C0 64.81 64.81 0 145 0C225.19 0 290 64.81 290 145C290 225.19 225.19 290 145 290Z" />
		</clipPath>
		<clipPath clipPathUnits="userSpaceOnUse" id="cp5">
			<path d="M145 290C64.81 290 0 225.19 0 145C0 64.81 64.81 0 145 0C225.19 0 290 64.81 290 145C290 225.19 225.19 290 145 290Z" />
		</clipPath>
		<clipPath clipPathUnits="userSpaceOnUse" id="cp6">
			<path d="M145 290C64.81 290 0 225.19 0 145C0 64.81 64.81 0 145 0C225.19 0 290 64.81 290 145C290 225.19 225.19 290 145 290Z" />
		</clipPath>
		<clipPath clipPathUnits="userSpaceOnUse" id="cp7">
			<path d="M145 287.51C223.71 287.51 287.51 223.71 287.51 145C287.51 66.29 223.71 2.49 145 2.49L145 287.51Z" />
		</clipPath>
	</defs>
	<style>
		tspan { white-space:pre }
		.shp0 { fill: #ecad7a } 
		.shp1 { fill: #f0d29f } 
		.shp2 { fill: #d86534 } 
		.shp3 { fill: #dc8e61 } 
		.shp4 { fill: #d89d6d } 
		.shp5 { opacity: 0.078;fill: #000000 } 
		.shp6 { fill: #a15c3e } 
		.shp7 { fill: #e2be81 } 
		.shp8 { fill: #d27140 } 
		.shp9 { fill: #565658 } 
	</style>
	<path id="Layer" class="shp0" d="M145 290C64.81 290 0 225.19 0 145C0 64.81 64.81 0 145 0C225.19 0 290 64.81 290 145C290 225.19 225.19 290 145 290Z" />
	<g id="Clip-Path" clip-path="url(#cp1)">
		<g id="Layer">
			<path id="Layer" fill-rule="evenodd" class="shp1" d="M18.93 146.49C22.24 146.49 24.91 149.17 24.91 152.47C24.91 155.78 22.24 158.45 18.93 158.45L-58.8 158.45C-62.1 158.45 -64.78 155.78 -64.78 152.47C-64.78 149.17 -62.1 146.49 -58.8 146.49L18.93 146.49ZM128.56 146.49C131.86 146.49 134.54 149.17 134.54 152.47C134.54 155.78 131.86 158.45 128.56 158.45L89.69 158.45L89.69 158.46C86.5 158.59 83.96 161.21 83.96 164.43C83.96 167.65 86.5 170.28 89.69 170.41L89.69 170.41L169.42 170.41C172.72 170.41 175.4 173.09 175.4 176.39C175.4 179.69 172.72 182.37 169.42 182.37L41.36 182.37C38.06 182.37 35.38 179.69 35.38 176.39C35.38 173.09 38.06 170.41 41.36 170.41L65.77 170.41C69.08 170.41 71.75 167.74 71.75 164.43C71.75 161.13 69.08 158.45 65.77 158.45L50.82 158.45C47.52 158.45 44.85 155.78 44.85 152.47C44.85 149.17 47.52 146.49 50.82 146.49L128.56 146.49ZM26.41 194.33C29.71 194.33 32.39 197.01 32.39 200.31C32.39 203.61 29.71 206.29 26.41 206.29L-9.97 206.29C-13.27 206.29 -15.95 203.61 -15.95 200.31C-15.95 197.01 -13.27 194.33 -9.97 194.33L26.41 194.33ZM169.42 194.33C172.72 194.33 175.4 197.01 175.4 200.31C175.4 203.61 172.72 206.29 169.42 206.29L133.04 206.29C129.74 206.29 127.06 203.61 127.06 200.31C127.06 197.01 129.74 194.33 133.04 194.33L169.42 194.33ZM294.98 206.29L212.27 206.29C208.97 206.29 206.29 203.61 206.29 200.31C206.29 197.01 208.97 194.33 212.27 194.33L294.98 194.33C298.28 194.33 300.96 197.01 300.96 200.31C300.96 203.61 298.28 206.29 294.98 206.29ZM164.43 158.45C161.13 158.45 158.45 155.78 158.45 152.47C158.45 149.17 161.13 146.49 164.43 146.49L242.16 146.49C245.47 146.49 248.14 149.17 248.14 152.47C248.14 155.78 245.47 158.45 242.16 158.45L230.21 158.45L230.21 158.46C227.02 158.59 224.48 161.21 224.48 164.43C224.48 167.65 227.02 170.28 230.21 170.41L230.21 170.41L329.86 170.41C333.16 170.41 335.84 173.09 335.84 176.39C335.84 179.69 333.16 182.37 329.86 182.37L201.8 182.37C198.5 182.37 195.82 179.69 195.82 176.39C195.82 173.09 198.5 170.41 201.8 170.41L206.29 170.41C209.59 170.41 212.27 167.74 212.27 164.43C212.27 161.13 209.59 158.45 206.29 158.45L164.43 158.45ZM348.8 158.45L271.07 158.45C267.76 158.45 265.09 155.78 265.09 152.47C265.09 149.17 267.76 146.49 271.07 146.49L348.8 146.49C352.1 146.49 354.78 149.17 354.78 152.47C354.78 155.78 352.1 158.45 348.8 158.45Z" />
		</g>
	</g>
	<g id="Clip-Path" clip-path="url(#cp2)">
		<g id="Layer">
			<path id="Layer" class="shp2" d="M79.23 200.31C79.23 197.01 76.55 194.33 73.25 194.33L58.8 194.33C55.5 194.33 52.82 191.65 52.82 188.35C52.82 185.05 55.5 182.37 58.8 182.37L109.12 182.37C112.43 182.37 115.1 185.05 115.1 188.35C115.1 191.65 112.43 194.33 109.12 194.33L107.63 194.33L107.63 194.33C104.44 194.47 101.9 197.09 101.9 200.31C101.9 203.53 104.44 206.15 107.63 206.28L107.63 206.29L109.12 206.29C112.43 206.29 115.1 208.97 115.1 212.27C115.1 215.57 112.43 218.25 109.12 218.25L71.25 218.25C67.95 218.25 65.27 215.57 65.27 212.27C65.27 208.97 67.95 206.29 71.25 206.29L73.25 206.29C76.55 206.29 79.23 203.61 79.23 200.31Z" />
		</g>
	</g>
	<g id="Clip-Path" clip-path="url(#cp3)">
		<g id="Layer">
			<path id="Layer" fill-rule="evenodd" class="shp3" d="M309.93 26.91C313.23 26.91 315.91 29.58 315.91 32.89C315.91 36.19 313.23 38.87 309.93 38.87L232.2 38.87C228.9 38.87 226.22 36.19 226.22 32.89C226.22 29.58 228.9 26.91 232.2 26.91L309.93 26.91ZM200.31 26.91C203.61 26.91 206.29 29.58 206.29 32.89C206.29 36.19 203.61 38.87 200.31 38.87L185.36 38.87C182.06 38.87 179.38 41.54 179.38 44.85C179.38 48.15 182.06 50.82 185.36 50.82L209.78 50.82C213.08 50.82 215.76 53.5 215.76 56.8C215.76 60.11 213.08 62.78 209.78 62.78L81.72 62.78C78.42 62.78 75.74 60.11 75.74 56.8C75.74 53.5 78.42 50.82 81.72 50.82L161.44 50.82L161.44 50.82C164.63 50.69 167.17 48.06 167.17 44.85C167.17 41.63 164.63 39 161.44 38.87L161.44 38.87L122.58 38.87C119.28 38.87 116.6 36.19 116.6 32.89C116.6 29.58 119.28 26.91 122.58 26.91L200.31 26.91ZM261.1 74.74C264.4 74.74 267.08 77.42 267.08 80.72C267.08 84.02 264.4 86.7 261.1 86.7L224.73 86.7C221.42 86.7 218.75 84.02 218.75 80.72C218.75 77.42 221.42 74.74 224.73 74.74L261.1 74.74ZM118.09 74.74C121.39 74.74 124.07 77.42 124.07 80.72C124.07 84.02 121.39 86.7 118.09 86.7L81.72 86.7C78.42 86.7 75.74 84.02 75.74 80.72C75.74 77.42 78.42 74.74 81.72 74.74L118.09 74.74ZM-49.83 80.72C-49.83 77.42 -47.15 74.74 -43.85 74.74L38.87 74.74C42.17 74.74 44.85 77.42 44.85 80.72C44.85 84.02 42.17 86.7 38.87 86.7L-43.85 86.7C-47.15 86.7 -49.83 84.02 -49.83 80.72ZM44.85 38.87C41.54 38.87 38.87 41.54 38.87 44.85C38.87 48.15 41.54 50.82 44.85 50.82L49.33 50.82C52.63 50.82 55.31 53.5 55.31 56.8C55.31 60.11 52.63 62.78 49.33 62.78L-78.73 62.78C-82.03 62.78 -84.71 60.11 -84.71 56.8C-84.71 53.5 -82.03 50.82 -78.73 50.82L20.93 50.82L20.93 50.82C24.11 50.69 26.66 48.06 26.66 44.85C26.66 41.63 24.11 39 20.93 38.87L20.93 38.87L8.97 38.87C5.67 38.87 2.99 36.19 2.99 32.89C2.99 29.58 5.67 26.91 8.97 26.91L86.7 26.91C90 26.91 92.68 29.58 92.68 32.89C92.68 36.19 90 38.87 86.7 38.87L44.85 38.87ZM-103.64 32.89C-103.64 29.58 -100.97 26.91 -97.66 26.91L-19.93 26.91C-16.63 26.91 -13.95 29.58 -13.95 32.89C-13.95 36.19 -16.63 38.87 -19.93 38.87L-97.66 38.87C-100.97 38.87 -103.64 36.19 -103.64 32.89Z" />
		</g>
	</g>
	<g id="Clip-Path" clip-path="url(#cp4)">
		<g id="Layer">
			<path id="Layer" fill-rule="evenodd" class="shp4" d="M388.66 218.25C391.96 218.25 394.64 220.92 394.64 224.23C394.64 227.53 391.96 230.21 388.66 230.21L310.93 230.21C307.63 230.21 304.95 227.53 304.95 224.23C304.95 220.92 307.63 218.25 310.93 218.25L388.66 218.25ZM279.04 218.25C282.34 218.25 285.02 220.92 285.02 224.23C285.02 227.53 282.34 230.21 279.04 230.21L264.09 230.21C260.79 230.21 258.11 232.88 258.11 236.19C258.11 239.49 260.79 242.16 264.09 242.16L288.51 242.16C291.81 242.16 294.48 244.84 294.48 248.14C294.48 251.45 291.81 254.12 288.51 254.12L160.45 254.12C157.14 254.12 154.47 251.45 154.47 248.14C154.47 244.84 157.14 242.16 160.45 242.16L240.17 242.16L240.17 242.16C243.36 242.03 245.9 239.4 245.9 236.19C245.9 232.97 243.36 230.34 240.17 230.21L240.17 230.21L201.31 230.21C198 230.21 195.33 227.53 195.33 224.23C195.33 220.92 198 218.25 201.31 218.25L279.04 218.25ZM339.83 266.08C343.13 266.08 345.81 268.76 345.81 272.06C345.81 275.36 343.13 278.04 339.83 278.04L303.45 278.04C300.15 278.04 297.47 275.36 297.47 272.06C297.47 268.76 300.15 266.08 303.45 266.08L339.83 266.08ZM196.82 266.08C200.12 266.08 202.8 268.76 202.8 272.06C202.8 275.36 200.12 278.04 196.82 278.04L160.45 278.04C157.14 278.04 154.47 275.36 154.47 272.06C154.47 268.76 157.14 266.08 160.45 266.08L196.82 266.08ZM28.9 272.06C28.9 268.76 31.58 266.08 34.88 266.08L117.59 266.08C120.9 266.08 123.57 268.76 123.57 272.06C123.57 275.36 120.9 278.04 117.59 278.04L34.88 278.04C31.58 278.04 28.9 275.36 28.9 272.06ZM123.57 230.21C120.27 230.21 117.59 232.88 117.59 236.19C117.59 239.49 120.27 242.16 123.57 242.16L128.06 242.16C131.36 242.16 134.04 244.84 134.04 248.14C134.04 251.45 131.36 254.12 128.06 254.12L0 254.12C-3.3 254.12 -5.98 251.45 -5.98 248.14C-5.98 244.84 -3.3 242.16 0 242.16L99.66 242.16L99.66 242.16C102.84 242.03 105.39 239.4 105.39 236.19C105.39 232.97 102.84 230.34 99.66 230.21L99.66 230.21L87.7 230.21C84.4 230.21 81.72 227.53 81.72 224.23C81.72 220.92 84.4 218.25 87.7 218.25L165.43 218.25C168.73 218.25 171.41 220.92 171.41 224.23C171.41 227.53 168.73 230.21 165.43 230.21L123.57 230.21ZM-24.91 224.23C-24.91 220.92 -22.24 218.25 -18.93 218.25L58.8 218.25C62.1 218.25 64.78 220.92 64.78 224.23C64.78 227.53 62.1 230.21 58.8 230.21L-18.93 230.21C-22.24 230.21 -24.91 227.53 -24.91 224.23Z" />
		</g>
	</g>
	<g id="Clip-Path" clip-path="url(#cp5)">
		<g id="Layer">
			<path id="Layer" fill-rule="evenodd" class="shp4" d="M55.81 110.62C52.51 110.62 49.83 107.94 49.83 104.64C49.83 101.34 52.51 98.66 55.81 98.66L154.97 98.66C158.27 98.66 160.95 101.34 160.95 104.64C160.95 107.94 158.27 110.62 154.97 110.62L122.58 110.62L122.58 110.62C119.39 110.75 116.85 113.38 116.85 116.6C116.85 119.82 119.39 122.44 122.58 122.57L122.58 122.58L127.56 122.58C130.86 122.58 133.54 125.25 133.54 128.56C133.54 131.86 130.86 134.54 127.56 134.54L83.21 134.54C79.91 134.54 77.23 131.86 77.23 128.56C77.23 125.25 79.91 122.58 83.21 122.58L88.2 122.58C91.5 122.58 94.18 119.9 94.18 116.6C94.18 113.3 91.5 110.62 88.2 110.62L55.81 110.62ZM59.3 134.54L28.4 134.54C25.1 134.54 22.42 131.86 22.42 128.56C22.42 125.25 25.1 122.58 28.4 122.58L59.3 122.58C62.6 122.58 65.27 125.25 65.27 128.56C65.27 131.86 62.6 134.54 59.3 134.54ZM4.48 122.58C7.79 122.58 10.46 125.25 10.46 128.56C10.46 131.86 7.79 134.54 4.48 134.54L-9.47 134.54C-12.77 134.54 -15.45 131.86 -15.45 128.56C-15.45 125.25 -12.77 122.58 -9.47 122.58L4.48 122.58ZM235.19 134.54L151.48 134.54C148.18 134.54 145.5 131.86 145.5 128.56C145.5 125.25 148.18 122.58 151.48 122.58L235.19 122.58C238.49 122.58 241.17 125.25 241.17 128.56C241.17 131.86 238.49 134.54 235.19 134.54ZM273.06 122.58C276.36 122.58 279.04 125.25 279.04 128.56C279.04 131.86 276.36 134.54 273.06 134.54L259.11 134.54C255.8 134.54 253.13 131.86 253.13 128.56C253.13 125.25 255.8 122.58 259.11 122.58L273.06 122.58ZM249.64 110.62L178.88 110.62C175.58 110.62 172.9 107.94 172.9 104.64C172.9 101.34 175.58 98.66 178.88 98.66L249.64 98.66C252.94 98.66 255.62 101.34 255.62 104.64C255.62 107.94 252.94 110.62 249.64 110.62ZM298.47 98.66C301.77 98.66 304.45 101.34 304.45 104.64C304.45 107.94 301.77 110.62 298.47 110.62L273.56 110.62C270.25 110.62 267.58 107.94 267.58 104.64C267.58 101.34 270.25 98.66 273.56 98.66L298.47 98.66ZM19.93 110.62L5.98 110.62C2.68 110.62 0 107.94 0 104.64C0 101.34 2.68 98.66 5.98 98.66L19.93 98.66C23.23 98.66 25.91 101.34 25.91 104.64C25.91 107.94 23.23 110.62 19.93 110.62Z" />
		</g>
	</g>
	<g id="Clip-Path" clip-path="url(#cp6)">
		<g id="Layer">
			<path id="Layer" class="shp5" d="M145 0L290.5 0L290.5 290L145 290L145 0Z" />
		</g>
	</g>
	<path id="Layer" fill-rule="evenodd" class="shp6" d="M145 287.51C223.71 287.51 287.51 223.71 287.51 145C287.51 66.29 223.71 2.49 145 2.49L145 287.51Z" />
	<g id="Clip-Path" clip-path="url(#cp7)">
		<g id="Layer">
			<path id="Layer" class="shp1" d="M145.25 279.54C70.99 279.54 10.96 219.51 10.96 145.25C10.96 70.99 70.99 10.96 145.25 10.96C219.51 10.96 279.54 70.99 279.54 145.25C279.54 219.51 219.51 279.54 145.25 279.54Z" />
			<path id="Layer" class="shp7" d="M145.75 251.13C87.19 251.13 39.86 203.8 39.86 145.25C39.86 86.69 87.19 39.36 145.75 39.36C204.3 39.36 251.63 86.69 251.63 145.25C251.63 203.8 204.3 251.13 145.75 251.13Z" />
			<path id="Layer" class="shp8" d="M145.75 238.68C94.08 238.68 52.32 196.91 52.32 145.25C52.32 93.58 94.08 51.82 145.75 51.82C197.41 51.82 239.18 93.58 239.18 145.25C239.18 196.91 197.41 238.68 145.75 238.68Z" />
			<path id="Layer" class="shp9" d="M145 165.93C133.43 165.93 124.07 156.57 124.07 145C124.07 133.43 133.43 124.07 145 124.07C156.57 124.07 165.93 133.43 165.93 145C165.93 156.57 156.57 165.93 145 165.93Z" />
		</g>
	</g>
	<path id="Layer" fill-rule="evenodd" class="shp2" d="M109.12 182.37C112.43 182.37 115.1 185.05 115.1 188.35C115.1 191.65 112.43 194.33 109.12 194.33L58.8 194.33C55.5 194.33 52.82 191.65 52.82 188.35C52.82 185.05 55.5 182.37 58.8 182.37L109.12 182.37ZM109.12 206.29C112.43 206.29 115.1 208.97 115.1 212.27C115.1 215.57 112.43 218.25 109.12 218.25L71.25 218.25C67.95 218.25 65.27 215.57 65.27 212.27C65.27 208.97 67.95 206.29 71.25 206.29L109.12 206.29Z" />
</svg>