<svg version="1.2" baseProfile="tiny-ps" xmlns="http://www.w3.org/2000/svg" viewBox="0 0 290 290" width="290" height="290">
	<title>planet-venus-internal-svg</title>
	<defs>
		<clipPath clipPathUnits="userSpaceOnUse" id="cp1">
			<path d="M145 290C64.81 290 0 225.19 0 145C0 64.81 64.81 0 145 0C225.19 0 290 64.81 290 145C290 225.19 225.19 290 145 290Z" />
		</clipPath>
		<clipPath clipPathUnits="userSpaceOnUse" id="cp2">
			<path d="M145 290C64.81 290 0 225.19 0 145C0 64.81 64.81 0 145 0C225.19 0 290 64.81 290 145C290 225.19 225.19 290 145 290Z" />
		</clipPath>
		<clipPath clipPathUnits="userSpaceOnUse" id="cp3">
			<path d="M145 290C64.81 290 0 225.19 0 145C0 64.81 64.81 0 145 0C225.19 0 290 64.81 290 145C290 225.19 225.19 290 145 290Z" />
		</clipPath>
		<clipPath clipPathUnits="userSpaceOnUse" id="cp4">
			<path d="M145.72 5.08C223 5.08 285.65 67.72 285.65 145C285.65 222.28 223 284.93 145.72 284.93L145.72 5.08Z" />
		</clipPath>
		<clipPath clipPathUnits="userSpaceOnUse" id="cp5">
			<path d="M145.72 5.08C223 5.08 285.65 67.72 285.65 145C285.65 222.28 223 284.93 145.72 284.93L145.72 5.08Z" />
		</clipPath>
	</defs>
	<style>
		tspan { white-space:pre }
		.shp0 { fill: #f7cc7f } 
		.shp1 { fill: #ffe6ae } 
		.shp2 { fill: #e29f58 } 
		.shp3 { opacity: 0.078;fill: #000000 } 
		.shp4 { fill: #c08240 } 
		.shp5 { fill: #a34d28 } 
		.shp6 { fill: #fad14c } 
	</style>
	<g id="Layer">
		<path id="Layer" class="shp0" d="M145 290C64.81 290 0 225.19 0 145C0 64.81 64.81 0 145 0C225.19 0 290 64.81 290 145C290 225.19 225.19 290 145 290Z" />
		<g id="Clip-Path" clip-path="url(#cp1)">
			<path id="Layer" fill-rule="evenodd" class="shp1" d="M224.75 225.47C229.55 225.47 233.45 229.37 233.45 234.17C233.45 238.98 229.55 242.88 224.75 242.88L137.03 242.88L137.02 242.88C132.39 243.07 128.69 246.89 128.69 251.57C128.69 256.26 132.39 260.08 137.02 260.27L137.03 260.27L139.2 260.27C144 260.27 147.9 264.17 147.9 268.97C147.9 273.78 144 277.68 139.2 277.68L84.1 277.68C79.3 277.68 75.4 273.78 75.4 268.97C75.4 264.17 79.3 260.27 84.1 260.27L87 260.27C91.8 260.27 95.7 256.38 95.7 251.57C95.7 246.77 91.8 242.88 87 242.88L57.27 242.88C52.47 242.88 48.57 238.98 48.57 234.17C48.57 229.37 52.47 225.47 57.27 225.47L224.75 225.47ZM210.25 121.08C215.05 121.08 218.95 124.97 218.95 129.78C218.95 134.58 215.05 138.47 210.25 138.47L196.47 138.47L196.47 138.48C191.84 138.67 188.14 142.49 188.14 147.17C188.14 151.86 191.84 155.68 196.47 155.87L196.47 155.88L254.47 155.88C259.28 155.88 263.18 159.77 263.18 164.57C263.18 169.38 259.28 173.28 254.47 173.28L239.97 173.28L239.97 173.28C235.34 173.47 231.64 177.29 231.64 181.97C231.64 186.66 235.34 190.48 239.97 190.67L239.97 190.67L240.7 190.67C245.5 190.67 249.4 194.57 249.4 199.38C249.4 204.18 245.5 208.07 240.7 208.07L185.6 208.07C180.8 208.07 176.9 204.18 176.9 199.38C176.9 194.57 180.8 190.67 185.6 190.67L189.95 190.67C194.75 190.67 198.65 186.78 198.65 181.97C198.65 177.17 194.75 173.28 189.95 173.28L87 173.28C82.2 173.28 78.3 169.38 78.3 164.57C78.3 159.77 82.2 155.88 87 155.88L93.52 155.88C98.33 155.88 102.22 151.98 102.22 147.17C102.22 142.37 98.33 138.47 93.52 138.47L42.77 138.47C37.97 138.47 34.07 134.58 34.07 129.78C34.07 124.97 37.97 121.08 42.77 121.08L210.25 121.08ZM84.83 190.67C89.63 190.67 93.52 194.57 93.52 199.38C93.52 204.18 89.63 208.07 84.83 208.07L29.72 208.07C24.92 208.07 21.02 204.18 21.02 199.38C21.02 194.57 24.92 190.67 29.72 190.67L84.83 190.67ZM321.18 155.88C325.98 155.88 329.88 159.77 329.88 164.57C329.88 169.38 325.98 173.28 321.18 173.28L291.45 173.28C286.65 173.28 282.75 169.38 282.75 164.57C282.75 159.77 286.65 155.88 291.45 155.88L321.18 155.88ZM-6.89 121.08C-2.08 121.08 1.81 124.97 1.81 129.78C1.81 134.58 -2.08 138.47 -6.89 138.47L-38.79 138.47C-43.59 138.47 -47.49 134.58 -47.49 129.78C-47.49 124.97 -43.59 121.08 -38.79 121.08L-6.89 121.08ZM201.55 86.27C206.35 86.27 210.25 90.17 210.25 94.97C210.25 99.78 206.35 103.67 201.55 103.67L156.6 103.67C151.8 103.67 147.9 99.78 147.9 94.97C147.9 90.17 151.8 86.27 156.6 86.27L201.55 86.27ZM100.77 86.27C105.58 86.27 109.47 90.17 109.47 94.97C109.47 99.78 105.58 103.67 100.77 103.67L86.27 103.67C81.47 103.67 77.58 99.78 77.58 94.97C77.58 90.17 81.47 86.27 86.27 86.27L100.77 86.27ZM215.32 16.68C220.13 16.68 224.03 20.57 224.03 25.38C224.03 30.18 220.13 34.07 215.32 34.07L166.03 34.07L166.02 34.08C161.39 34.27 157.69 38.09 157.69 42.77C157.69 47.46 161.39 51.28 166.03 51.47L166.03 51.48L168.2 51.48C173 51.48 176.9 55.37 176.9 60.17C176.9 64.98 173 68.88 168.2 68.88L113.1 68.88C108.3 68.88 104.4 64.98 104.4 60.17C104.4 55.37 108.3 51.48 113.1 51.48L116 51.48C120.8 51.48 124.7 47.58 124.7 42.77C124.7 37.97 120.8 34.07 116 34.07L29 34.07C24.2 34.07 20.3 30.18 20.3 25.38C20.3 20.57 24.2 16.68 29 16.68L215.32 16.68ZM217.5 51.48C222.3 51.48 226.2 55.37 226.2 60.17C226.2 64.98 222.3 68.88 217.5 68.88L203 68.88C198.2 68.88 194.3 64.98 194.3 60.17C194.3 55.37 198.2 51.48 203 51.48L217.5 51.48ZM78.3 51.48C83.1 51.48 87 55.37 87 60.17C87 64.98 83.1 68.88 78.3 68.88L63.8 68.88C59 68.88 55.1 64.98 55.1 60.17C55.1 55.37 59 51.48 63.8 51.48L78.3 51.48Z" />
		</g>
		<g id="Clip-Path" clip-path="url(#cp2)">
			<path id="Layer" fill-rule="evenodd" class="shp2" d="M148.63 190.67C153.43 190.67 157.32 194.57 157.32 199.38C157.32 204.18 153.43 208.07 148.63 208.07L103.67 208.07C98.87 208.07 94.97 204.18 94.97 199.38C94.97 194.57 98.87 190.67 103.67 190.67L148.63 190.67ZM71.77 147.17C71.77 142.37 67.88 138.47 63.07 138.47L1.45 138.47C-3.35 138.47 -7.25 134.58 -7.25 129.78C-7.25 124.97 -3.35 121.08 1.45 121.08L11.6 121.08C16.4 121.08 20.3 117.18 20.3 112.38C20.3 107.57 16.4 103.67 11.6 103.67L-10.15 103.67C-14.95 103.67 -18.85 99.78 -18.85 94.97C-18.85 90.17 -14.95 86.27 -10.15 86.27L102.95 86.27C107.75 86.27 111.65 90.17 111.65 94.97C111.65 99.78 107.75 103.67 102.95 103.67L46.4 103.67L46.4 103.68C41.76 103.87 38.06 107.69 38.06 112.38C38.06 117.06 41.76 120.88 46.4 121.07L46.4 121.08L162.4 121.08C167.2 121.08 171.1 124.97 171.1 129.78C171.1 134.58 167.2 138.47 162.4 138.47L113.1 138.47L113.1 138.48C108.46 138.67 104.76 142.49 104.76 147.17C104.76 151.86 108.46 155.68 113.1 155.87L113.1 155.88L115.27 155.88C120.08 155.88 123.97 159.77 123.97 164.57C123.97 169.38 120.08 173.28 115.27 173.28L60.17 173.28C55.37 173.28 51.48 169.38 51.48 164.57C51.48 159.77 55.37 155.88 60.17 155.88L63.07 155.88C67.88 155.88 71.77 151.98 71.77 147.17ZM164.57 155.88C169.38 155.88 173.28 159.77 173.28 164.57C173.28 169.38 169.38 173.28 164.57 173.28L150.07 173.28C145.27 173.28 141.38 169.38 141.38 164.57C141.38 159.77 145.27 155.88 150.07 155.88L164.57 155.88ZM292.18 155.88C296.98 155.88 300.88 159.77 300.88 164.57C300.88 169.38 296.98 173.28 292.18 173.28L218.95 173.28C214.15 173.28 210.25 169.38 210.25 164.57C210.25 159.77 214.15 155.88 218.95 155.88L292.18 155.88ZM25.38 155.88C30.18 155.88 34.07 159.77 34.07 164.57C34.07 169.38 30.18 173.28 25.38 173.28L10.88 173.28C6.07 173.28 2.17 169.38 2.17 164.57C2.17 159.77 6.07 155.88 10.88 155.88L25.38 155.88ZM252.3 121.08C257.1 121.08 261 124.97 261 129.78C261 134.58 257.1 138.47 252.3 138.47L237.8 138.47C233 138.47 229.1 134.58 229.1 129.78C229.1 124.97 233 121.08 237.8 121.08L252.3 121.08Z" />
		</g>
		<g id="Clip-Path" clip-path="url(#cp3)">
			<path id="Layer" class="shp3" d="M145.72 -18.13L308.85 -18.13L308.85 308.13L145.72 308.13L145.72 -18.13Z" />
		</g>
		<g id="Layer">
			<path id="g" fill-rule="evenodd" class="shp4" d="M145.72 5.08C223 5.08 285.65 67.72 285.65 145C285.65 222.28 223 284.93 145.72 284.93L145.72 5.08Z" />
			<g id="Clip-Path" clip-path="url(#cp4)">
				<path id="Layer" class="shp5" d="M146.45 279.85C72.28 279.85 12.32 219.9 12.32 145.72C12.32 71.55 72.28 11.6 146.45 11.6C220.62 11.6 280.57 71.55 280.57 145.72C280.57 219.9 220.62 279.85 146.45 279.85Z" />
			</g>
			<g id="Clip-Path" clip-path="url(#cp5)">
				<path id="Layer" class="shp6" d="M146.45 205.17C113.17 205.17 86.27 178.28 86.27 145C86.27 111.72 113.17 84.83 146.45 84.83C179.73 84.83 206.63 111.72 206.63 145C206.63 178.28 179.73 205.17 146.45 205.17Z" />
			</g>
		</g>
	</g>
</svg>