<svg version="1.2" baseProfile="tiny-ps" xmlns="http://www.w3.org/2000/svg" viewBox="0 0 290 290" width="290" height="290">
	<title>Layer</title>
	<defs>
		<clipPath clipPathUnits="userSpaceOnUse" id="cp1">
			<path d="M145 290C64.81 290 0 225.18 0 145C0 64.81 64.81 0 145 0C225.18 0 290 64.81 290 145C290 225.18 225.18 290 145 290Z" />
		</clipPath>
		<clipPath clipPathUnits="userSpaceOnUse" id="cp2">
			<path d="M145 290C64.81 290 0 225.18 0 145C0 64.81 64.81 0 145 0C225.18 0 290 64.81 290 145C290 225.18 225.18 290 145 290Z" />
		</clipPath>
		<clipPath clipPathUnits="userSpaceOnUse" id="cp3">
			<path d="M145 290C64.81 290 0 225.18 0 145C0 64.81 64.81 0 145 0C225.18 0 290 64.81 290 145C290 225.18 225.18 290 145 290Z" />
		</clipPath>
		<clipPath clipPathUnits="userSpaceOnUse" id="cp4">
			<path d="M145 290C64.81 290 0 225.18 0 145C0 64.81 64.81 0 145 0C225.18 0 290 64.81 290 145C290 225.18 225.18 290 145 290Z" />
		</clipPath>
		<clipPath clipPathUnits="userSpaceOnUse" id="cp5">
			<path d="M145 290C64.81 290 0 225.18 0 145C0 64.81 64.81 0 145 0C225.18 0 290 64.81 290 145C290 225.18 225.18 290 145 290Z" />
		</clipPath>
	</defs>
	<style>
		tspan { white-space:pre }
		.shp0 { fill: #497efa } 
		.shp1 { fill: #356cee } 
		.shp2 { opacity: 0.4;fill: #356cee } 
		.shp3 { fill: #2255ca } 
		.shp4 { opacity: 0.078;fill: #000000 } 
	</style>
	<g id="Layer">
		<path id="Layer" class="shp0" d="M145 290C64.81 290 0 225.18 0 145C0 64.81 64.81 0 145 0C225.18 0 290 64.81 290 145C290 225.18 225.18 290 145 290Z" />
		<g id="Clip-Path" clip-path="url(#cp1)">
			<path id="Layer" class="shp1" d="M204.4 168.84C208.67 168.84 212.14 172.31 212.14 176.58C212.14 180.85 208.67 184.31 204.4 184.31L157.36 184.31C153.09 184.31 149.63 180.85 149.63 176.58C149.63 172.31 153.09 168.84 157.36 168.84L204.4 168.84ZM19.45 168.84C23.72 168.84 27.18 172.31 27.18 176.58C27.18 180.85 23.72 184.31 19.45 184.31L-27.6 184.31C-31.87 184.31 -35.33 180.85 -35.33 176.58C-35.33 172.31 -31.87 168.84 -27.6 168.84L19.45 168.84ZM366.8 168.84C371.07 168.84 374.54 172.31 374.54 176.58C374.54 180.85 371.07 184.31 366.8 184.31L259.83 184.31C255.55 184.31 252.09 180.85 252.09 176.58C252.09 172.31 255.55 168.84 259.83 168.84L366.8 168.84ZM151.56 106.98C155.83 106.98 159.29 110.44 159.29 114.71C159.29 118.98 155.83 122.44 151.56 122.44L101.29 122.44L101.29 122.45C97.17 122.62 93.88 126.01 93.88 130.18C93.88 134.34 97.17 137.74 101.29 137.9L101.29 137.91L204.4 137.91C208.67 137.91 212.14 141.37 212.14 145.64C212.14 149.92 208.67 153.38 204.4 153.38L38.78 153.38C34.51 153.38 31.05 149.92 31.05 145.64C31.05 141.37 34.51 137.91 38.78 137.91L70.36 137.91C74.63 137.91 78.09 134.45 78.09 130.18C78.09 125.91 74.63 122.44 70.36 122.44L51.03 122.44C46.75 122.44 43.29 118.98 43.29 114.71C43.29 110.44 46.75 106.98 51.03 106.98L151.56 106.98ZM259.83 130.18C259.83 125.91 256.36 122.44 252.09 122.44L197.96 122.44C193.69 122.44 190.23 118.98 190.23 114.71C190.23 110.44 193.69 106.98 197.96 106.98L298.49 106.98C302.76 106.98 306.23 110.44 306.23 114.71C306.23 118.98 302.76 122.44 298.49 122.44L283.03 122.44L283.03 122.45C278.9 122.62 275.61 126.01 275.61 130.18C275.61 134.34 278.9 137.74 283.03 137.9L283.03 137.91L411.91 137.91C416.19 137.91 419.65 141.37 419.65 145.64C419.65 149.92 416.19 153.38 411.91 153.38L246.29 153.38C242.02 153.38 238.56 149.92 238.56 145.64C238.56 141.37 242.02 137.91 246.29 137.91L252.09 137.91C256.36 137.91 259.83 134.45 259.83 130.18ZM9.78 106.98C14.05 106.98 17.51 110.44 17.51 114.71C17.51 118.98 14.05 122.44 9.78 122.44L-90.75 122.44C-95.02 122.44 -98.49 118.98 -98.49 114.71C-98.49 110.44 -95.02 106.98 -90.75 106.98L9.78 106.98ZM436.4 106.98C440.67 106.98 444.14 110.44 444.14 114.71C444.14 118.98 440.67 122.44 436.4 122.44L335.87 122.44C331.6 122.44 328.14 118.98 328.14 114.71C328.14 110.44 331.6 106.98 335.87 106.98L436.4 106.98Z" />
		</g>
		<g id="Clip-Path" clip-path="url(#cp2)">
			<path id="Layer" class="shp2" d="M204.4 76.04C208.67 76.04 212.14 79.51 212.14 83.78C212.14 88.05 208.67 91.51 204.4 91.51L157.36 91.51C153.09 91.51 149.63 88.05 149.63 83.78C149.63 79.51 153.09 76.04 157.36 76.04L204.4 76.04ZM19.45 76.04C23.72 76.04 27.18 79.51 27.18 83.78C27.18 88.05 23.72 91.51 19.45 91.51L-27.6 91.51C-31.87 91.51 -35.33 88.05 -35.33 83.78C-35.33 79.51 -31.87 76.04 -27.6 76.04L19.45 76.04ZM366.8 76.04C371.07 76.04 374.54 79.51 374.54 83.78C374.54 88.05 371.07 91.51 366.8 91.51L259.83 91.51C255.55 91.51 252.09 88.05 252.09 83.78C252.09 79.51 255.55 76.04 259.83 76.04L366.8 76.04ZM151.56 14.18C155.83 14.18 159.29 17.64 159.29 21.91C159.29 26.18 155.83 29.64 151.56 29.64L101.29 29.64L101.29 29.65C97.17 29.82 93.88 33.21 93.88 37.38C93.88 41.54 97.17 44.94 101.29 45.1L101.29 45.11L204.4 45.11C208.67 45.11 212.14 48.57 212.14 52.84C212.14 57.12 208.67 60.58 204.4 60.58L38.78 60.58C34.51 60.58 31.05 57.12 31.05 52.84C31.05 48.57 34.51 45.11 38.78 45.11L70.36 45.11C74.63 45.11 78.09 41.65 78.09 37.38C78.09 33.11 74.63 29.64 70.36 29.64L51.03 29.64C46.75 29.64 43.29 26.18 43.29 21.91C43.29 17.64 46.75 14.18 51.03 14.18L151.56 14.18ZM259.83 37.38C259.83 33.11 256.36 29.64 252.09 29.64L197.96 29.64C193.69 29.64 190.23 26.18 190.23 21.91C190.23 17.64 193.69 14.18 197.96 14.18L298.49 14.18C302.76 14.18 306.23 17.64 306.23 21.91C306.23 26.18 302.76 29.64 298.49 29.64L283.03 29.64L283.03 29.65C278.9 29.82 275.61 33.21 275.61 37.38C275.61 41.54 278.9 44.94 283.03 45.1L283.03 45.11L411.91 45.11C416.19 45.11 419.65 48.57 419.65 52.84C419.65 57.12 416.19 60.58 411.91 60.58L246.29 60.58C242.02 60.58 238.56 57.12 238.56 52.84C238.56 48.57 242.02 45.11 246.29 45.11L252.09 45.11C256.36 45.11 259.83 41.65 259.83 37.38ZM9.78 14.18C14.05 14.18 17.51 17.64 17.51 21.91C17.51 26.18 14.05 29.64 9.78 29.64L-90.75 29.64C-95.02 29.64 -98.49 26.18 -98.49 21.91C-98.49 17.64 -95.02 14.18 -90.75 14.18L9.78 14.18ZM436.4 14.18C440.67 14.18 444.14 17.64 444.14 21.91C444.14 26.18 440.67 29.64 436.4 29.64L335.87 29.64C331.6 29.64 328.14 26.18 328.14 21.91C328.14 17.64 331.6 14.18 335.87 14.18L436.4 14.18Z" />
		</g>
		<g id="Clip-Path" clip-path="url(#cp3)">
			<path id="Layer" class="shp2" d="M204.4 277.11C208.67 277.11 212.14 280.57 212.14 284.84C212.14 289.12 208.67 292.58 204.4 292.58L157.36 292.58C153.09 292.58 149.63 289.12 149.63 284.84C149.63 280.57 153.09 277.11 157.36 277.11L204.4 277.11ZM19.45 277.11C23.72 277.11 27.18 280.57 27.18 284.84C27.18 289.12 23.72 292.58 19.45 292.58L-27.6 292.58C-31.87 292.58 -35.33 289.12 -35.33 284.84C-35.33 280.57 -31.87 277.11 -27.6 277.11L19.45 277.11ZM366.8 277.11C371.07 277.11 374.54 280.57 374.54 284.84C374.54 289.12 371.07 292.58 366.8 292.58L259.83 292.58C255.55 292.58 252.09 289.12 252.09 284.84C252.09 280.57 255.55 277.11 259.83 277.11L366.8 277.11ZM151.56 215.24C155.83 215.24 159.29 218.71 159.29 222.98C159.29 227.25 155.83 230.71 151.56 230.71L101.29 230.71L101.29 230.72C97.17 230.89 93.88 234.28 93.88 238.44C93.88 242.61 97.17 246 101.29 246.17L101.29 246.18L204.4 246.18C208.67 246.18 212.14 249.64 212.14 253.91C212.14 258.18 208.67 261.64 204.4 261.64L38.78 261.64C34.51 261.64 31.05 258.18 31.05 253.91C31.05 249.64 34.51 246.18 38.78 246.18L70.36 246.18C74.63 246.18 78.09 242.72 78.09 238.44C78.09 234.17 74.63 230.71 70.36 230.71L51.03 230.71C46.75 230.71 43.29 227.25 43.29 222.98C43.29 218.71 46.75 215.24 51.03 215.24L151.56 215.24ZM259.83 238.44C259.83 234.17 256.36 230.71 252.09 230.71L197.96 230.71C193.69 230.71 190.23 227.25 190.23 222.98C190.23 218.71 193.69 215.24 197.96 215.24L298.49 215.24C302.76 215.24 306.23 218.71 306.23 222.98C306.23 227.25 302.76 230.71 298.49 230.71L283.03 230.71L283.03 230.72C278.9 230.89 275.61 234.28 275.61 238.44C275.61 242.61 278.9 246 283.03 246.17L283.03 246.18L411.91 246.18C416.19 246.18 419.65 249.64 419.65 253.91C419.65 258.18 416.19 261.64 411.91 261.64L246.29 261.64C242.02 261.64 238.56 258.18 238.56 253.91C238.56 249.64 242.02 246.18 246.29 246.18L252.09 246.18C256.36 246.18 259.83 242.72 259.83 238.44ZM9.78 215.24C14.05 215.24 17.51 218.71 17.51 222.98C17.51 227.25 14.05 230.71 9.78 230.71L-90.75 230.71C-95.02 230.71 -98.49 227.25 -98.49 222.98C-98.49 218.71 -95.02 215.24 -90.75 215.24L9.78 215.24ZM436.4 215.24C440.67 215.24 444.14 218.71 444.14 222.98C444.14 227.25 440.67 230.71 436.4 230.71L335.87 230.71C331.6 230.71 328.14 227.25 328.14 222.98C328.14 218.71 331.6 215.24 335.87 215.24L436.4 215.24Z" />
		</g>
		<g id="Clip-Path" clip-path="url(#cp4)">
			<path id="Layer" class="shp3" d="M95.49 176.58C95.49 172.31 92.03 168.84 87.76 168.84L75.51 168.84C71.24 168.84 67.78 165.38 67.78 161.11C67.78 156.84 71.24 153.38 75.51 153.38L126.43 153.38C130.7 153.38 134.16 156.84 134.16 161.11C134.16 165.38 130.7 168.84 126.43 168.84L124.49 168.84L124.49 168.85C120.37 169.02 117.08 172.41 117.08 176.58C117.08 180.74 120.37 184.14 124.49 184.3L124.49 184.31L126.43 184.31C130.7 184.31 134.16 187.77 134.16 192.04C134.16 196.32 130.7 199.78 126.43 199.78L87.11 199.78C82.84 199.78 79.38 196.32 79.38 192.04C79.38 187.77 82.84 184.31 87.11 184.31L87.76 184.31C92.03 184.31 95.49 180.85 95.49 176.58Z" />
		</g>
		<g id="Clip-Path" clip-path="url(#cp5)">
			<path id="Layer" class="shp4" d="M145 7.09L283.78 7.09L283.78 282.91L145 282.91L145 7.09Z" />
		</g>
	</g>
</svg>