<svg version="1.2" baseProfile="tiny-ps" xmlns="http://www.w3.org/2000/svg" viewBox="0 0 290 290" width="290" height="290">
	<title>planet-mercury-internal-svg</title>
	<defs>
		<clipPath clipPathUnits="userSpaceOnUse" id="cp1">
			<path d="M145 290C64.81 290 0 225.19 0 145C0 64.81 64.81 0 145 0C225.19 0 290 64.81 290 145C290 225.19 225.19 290 145 290Z" />
		</clipPath>
		<clipPath clipPathUnits="userSpaceOnUse" id="cp2">
			<path d="M145 290C64.81 290 0 225.19 0 145C0 64.81 64.81 0 145 0C225.19 0 290 64.81 290 145C290 225.19 225.19 290 145 290Z" />
		</clipPath>
		<clipPath clipPathUnits="userSpaceOnUse" id="cp3">
			<path d="M146 6C222.77 6 285 68.23 285 145C285 221.77 222.77 284 146 284L146 6Z" />
		</clipPath>
		<clipPath clipPathUnits="userSpaceOnUse" id="cp4">
			<path d="M146 6C222.77 6 285 68.23 285 145C285 221.77 222.77 284 146 284L146 6Z" />
		</clipPath>
		<clipPath clipPathUnits="userSpaceOnUse" id="cp5">
			<path d="M146 6C222.77 6 285 68.23 285 145C285 221.77 222.77 284 146 284L146 6Z" />
		</clipPath>
	</defs>
	<style>
		tspan { white-space:pre }
		.shp0 { fill: #def4fc } 
		.shp1 { fill: #b1d5e2 } 
		.shp2 { opacity: 0.078;fill: #000000 } 
		.shp3 { fill: #7a939c } 
		.shp4 { fill: #9ab2bb } 
		.shp5 { fill: #e8903f } 
		.shp6 { fill: #ffea87 } 
	</style>
	<g id="Layer">
		<path id="Layer" class="shp0" d="M145 290C64.81 290 0 225.19 0 145C0 64.81 64.81 0 145 0C225.19 0 290 64.81 290 145C290 225.19 225.19 290 145 290Z" />
		<g id="Clip-Path" clip-path="url(#cp1)">
			<path id="Layer" fill-rule="evenodd" class="shp1" d="M154 253C160.63 253 166 258.37 166 265C166 271.63 160.63 277 154 277L134 277C127.37 277 122 271.63 122 265C122 258.37 127.37 253 134 253L154 253ZM240 205C246.63 205 252 210.37 252 217C252 223.63 246.63 229 240 229L178 229C171.37 229 166 223.63 166 217C166 210.37 171.37 205 178 205L240 205ZM130 205C136.63 205 142 210.37 142 217C142 223.63 136.63 229 130 229C123.37 229 118 223.63 118 217C118 210.37 123.37 205 130 205ZM85 145C85 138.37 79.63 133 73 133L2 133C-4.63 133 -10 127.63 -10 121C-10 114.37 -4.63 109 2 109L51 109C57.63 109 63 103.63 63 97C63 90.37 57.63 85 51 85L46 85C39.37 85 34 79.63 34 73C34 66.37 39.37 61 46 61L119 61C125.63 61 131 66.37 131 73C131 79.63 125.63 85 119 85L99 85L99 85.01C92.61 85.27 87.5 90.54 87.5 97C87.5 103.46 92.61 108.73 99 108.99L99 109L144 109C150.63 109 156 114.37 156 121C156 127.63 150.63 133 144 133L142 133L142 133.01C135.6 133.27 130.5 138.54 130.5 145C130.5 151.46 135.6 156.73 142 156.99L142 157L194 157C200.63 157 206 162.37 206 169C206 175.63 200.63 181 194 181L70 181C63.37 181 58 175.63 58 169C58 162.37 63.37 157 70 157L73 157C79.63 157 85 151.63 85 145ZM245 157C251.63 157 257 162.37 257 169C257 175.63 251.63 181 245 181C238.37 181 233 175.63 233 169C233 162.37 238.37 157 245 157ZM22 157C28.63 157 34 162.37 34 169C34 175.63 28.63 181 22 181L2 181C-4.63 181 -10 175.63 -10 169C-10 162.37 -4.63 157 2 157L22 157ZM221 61C227.63 61 233 66.37 233 73C233 79.63 227.63 85 221 85L201 85C194.37 85 189 79.63 189 73C189 66.37 194.37 61 201 61L221 61ZM245 13C251.63 13 257 18.37 257 25C257 31.63 251.63 37 245 37L187 37C180.37 37 175 31.63 175 25C175 18.37 180.37 13 187 13L245 13Z" />
		</g>
		<g id="Clip-Path" clip-path="url(#cp2)">
			<path id="Layer" class="shp2" d="M146 0L291 0L291 290L146 290L146 0Z" />
		</g>
		<g id="Layer">
			<path id="e" fill-rule="evenodd" class="shp3" d="M146 6C222.77 6 285 68.23 285 145C285 221.77 222.77 284 146 284L146 6Z" />
			<g id="Clip-Path" clip-path="url(#cp3)">
				<path id="Layer" class="shp4" d="M147 277C74.56 277 16 218.44 16 146C16 73.56 74.56 15 147 15C219.44 15 278 73.56 278 146C278 218.44 219.44 277 147 277Z" />
			</g>
			<g id="Clip-Path" clip-path="url(#cp4)">
				<path id="Layer" class="shp5" d="M147 240C94.47 240 52 197.53 52 145C52 92.47 94.47 50 147 50C199.53 50 242 92.47 242 145C242 197.53 199.53 240 147 240Z" />
			</g>
			<g id="Clip-Path" clip-path="url(#cp5)">
				<path id="Layer" class="shp6" d="M146.5 187C123.55 187 105 168.45 105 145.5C105 122.55 123.55 104 146.5 104C169.45 104 188 122.55 188 145.5C188 168.45 169.45 187 146.5 187Z" />
			</g>
		</g>
	</g>
</svg>